<?xml version="1.0" encoding="utf-8"?>
<!-- Generator: Adobe Illustrator 24.3.0, SVG Export Plug-In . SVG Version: 6.00 Build 0)  -->
<svg version="1.1" id="layer" xmlns="http://www.w3.org/2000/svg" xmlns:xlink="http://www.w3.org/1999/xlink" x="0px" y="0px"
	 viewBox="0 0 450 450" style="enable-background:new 0 0 450 450;" xml:space="preserve">
<style type="text/css">
	.st0{opacity:20.000000e-02;}
</style>
<g class="st0">
	<path d="M185.1,371.9c-5.1-7.3-18.4-10.7-28.7-10.7c-3.2,0-6.1,0.3-8.7,0.9c-9.6,2.1-17.9,3.9-25.1,5.6
		c-19.4,4.4-31.2,7.1-40.9,7.1c-8.1,0-15.1-1.8-24.8-6.5c-10.2-4.9-17.6-9.5-23.6-13.2c-9.4-5.8-15.6-9.7-24.1-9.7
		c-2.8,0-5.8,0.4-9.1,1.3v0.7c3.4-0.9,6.4-1.3,9.1-1.3c8.3,0,14.5,3.8,23.8,9.6c6,3.7,13.5,8.4,23.7,13.2c9.8,4.7,16.9,6.5,25.1,6.5
		c9.8,0,21.6-2.7,41.1-7.1c7.3-1.6,15.5-3.5,25.1-5.6c2.6-0.6,5.5-0.8,8.6-0.8c10.1,0,23.2,3.2,28.1,10.4c2.2,3.1,2.5,6.7,1.1,10.6
		c-2.9,7.8-16.7,14.7-28.8,20.8c-7.3,3.7-14.3,7.1-17.8,10.4c-10.4,9.4-7.9,22.2-3.7,35.9h0.7c-4.2-13.6-6.7-26.2,3.4-35.4
		c3.5-3.2,10.4-6.6,17.7-10.3c12.2-6.1,26.1-13.1,29.2-21.1C187.8,379.1,187.5,375.3,185.1,371.9z"/>
	<path d="M3.2,291.9c1.4-30.8,21.1-53.3,36.9-71.4l1.1-1.3c1.8-1.9,6.1-7.1,5.7-13.3c-0.2-3.8-2.1-7.2-5.6-10.2
		c-2.1-1.8-4-3.5-5.9-5c-8.2-7-14.6-12.6-24.6-19.5c-3.7-2.5-7.3-4.9-10.8-7.2v0.4c3.5,2.2,7,4.6,10.6,7.1
		c10,6.9,16.5,12.5,24.6,19.5c1.8,1.6,3.8,3.3,5.9,5c3.4,2.9,5.3,6.3,5.5,10c0.3,6.1-3.8,11.2-5.7,13.1l-1.1,1.3
		C24,238.5,4.3,261,2.8,292c-0.2,3.3-1.4,5.3-2.9,6v0.4C1.6,297.6,3,295.6,3.2,291.9z"/>
	<path d="M178.3,418.8c-1.3-1.3-3-2-5.1-2c-6.3,0-14.1,6.2-16.8,9.1c-9.7,10.4-10.8,16.3-8.8,24.2h0.5c-1.9-7.8-0.8-13.5,8.7-23.8
		c2.6-2.8,10.3-8.9,16.4-8.9c1.9,0,3.5,0.6,4.7,1.8c2.1,2.1,3.1,6,3.1,11.5c0,6.8-1.2,13-2.7,19.3h0.5c1.5-6.3,2.6-12.6,2.7-19.3
		C181.6,425,180.5,421,178.3,418.8z"/>
	<path d="M10.2,292.2c1.3-28.4,20.1-49.9,35.2-67.1l1.1-1.3c3.2-3.6,5.7-6.8,7.6-9.5c2.3-3.4,6.7-9.6-3.6-19.6
		c-11.1-10.7-23.1-20.6-35.7-29.3c-5.1-3.6-10.1-6.8-14.8-9.6v0.4c4.7,2.9,9.5,6,14.6,9.5c12.6,8.7,24.6,18.6,35.7,29.3
		c10.1,9.8,5.9,15.9,3.6,19.2c-1.9,2.7-4.4,5.9-7.6,9.5l-1.1,1.3c-15.2,17.2-34,38.7-35.3,67.2c-0.6,13.2-3,20.9-7.4,24.2
		c-0.9,0.7-1.7,1-2.5,1.1v0.3c0.8-0.1,1.7-0.4,2.7-1.2C7.2,313.3,9.6,305.5,10.2,292.2z"/>
	<path d="M132.2,89.1c-1.9-7.7-17.6-9.7-35.8-12.1c-4.5-0.6-9.1-1.2-13.6-1.9C62.9,72,44.7,62,27,52.3c-8.8-4.9-17.8-9.8-27-13.9
		v0.8c9.1,4,18,8.9,26.7,13.7c17.7,9.7,36,19.7,56,22.9c4.5,0.7,9.2,1.3,13.6,1.9c17.2,2.2,33.4,4.4,35.2,11.6
		c1.4,5.6-5.9,14.1-22.4,26.1C86,132.1,66.6,139.9,48,139.9c-10.5,0-21-2.6-31-7.8C10.8,128.9,5.3,125,0,121v0.9
		c5.2,3.9,10.6,7.7,16.7,10.8c10.2,5.2,20.7,7.9,31.4,7.9l0,0c18.7,0,38.2-7.8,61.5-24.6C126.6,103.6,133.7,95.1,132.2,89.1z"/>
	<path d="M2.6,246.9c2.7-4.7,6.2-9,9.6-13.2c4.9-6,9.9-12.2,12.6-19.8c4.8-13.4-4.6-19.6-14.5-26.2c-0.9-0.6-1.8-1.2-2.8-1.8
		c-1.6-1.1-3.2-2.2-4.7-3.2c-0.7-0.5-1.7-1.2-2.8-2v0.4c1.1,0.8,1.9,1.4,2.6,1.9c1.5,1.1,3.1,2.1,4.7,3.2c0.9,0.6,1.8,1.2,2.8,1.8
		c9.8,6.5,19.1,12.7,14.4,25.9c-2.7,7.6-7.7,13.8-12.6,19.7c-3.4,4.2-6.9,8.5-9.6,13.2c-0.8,1.4-1.6,3.3-2.3,5.2v0.8
		c0.1-0.2,0.2-0.4,0.2-0.6C1,250.2,1.8,248.4,2.6,246.9z"/>
	<path d="M316.4,420.4c-0.4-3.4-2.5-6.3-6.3-8.7c-6.9-4.3-21.3-6.3-32.5-6.3c-2.2,0-4.2,0.1-6,0.2c-11,0.9-22.4,3.1-34.9,6.6
		c-1.8,0.5-3.6,1.1-5.3,1.6c-20.9,6.9-33,17.9-38.8,36.2h0.5c5.8-18,17.7-28.8,38.4-35.7c1.7-0.6,3.5-1.1,5.3-1.6
		c12.5-3.5,23.9-5.7,34.8-6.6c1.8-0.1,3.8-0.2,5.9-0.2c11.2,0,25.5,1.9,32.3,6.2c3.7,2.3,5.7,5.1,6.1,8.4
		c0.9,8.1-8.5,17.6-16.1,25.3c-1.5,1.5-3,3-4.2,4.3h0.7c1.2-1.2,2.5-2.5,3.9-4C307.8,438.3,317.3,428.7,316.4,420.4z"/>
	<path d="M125.4,394.9c1.6-1,3.5-1.2,5.1-1.2c0.8,0,1.5,0,2.3,0.1c0.8,0,1.6,0.1,2.5,0.1c1.9,0,4.3-0.2,6.5-1.5
		c5.7-3.5,7.6-7.6,6.9-9.9c-0.4-1.5-1.9-2.4-4.1-2.4c-1.9,0-4.3,0.7-7,2c-1.7,0.8-3.3,2.3-4.7,3.7c-1.8,1.7-3.7,3.5-5.8,4.1
		c-0.7,0.2-1.3,0.3-2,0.3c-1.4,0-2.6-0.3-3.8-0.7c-1.3-0.4-2.6-0.7-4-0.7c-0.5,0-1,0-1.5,0.1c-2.5,0.5-4.3,2.1-6,3.6
		c-1.4,1.3-2.8,2.6-4.7,3.3c-2.1,0.8-5.1,1.1-8.9,1.1c-5,0-10.5-0.6-15-1.1c-1.3-0.1-2.5-0.3-3.5-0.4c-9.3-0.9-18.9-3.8-29.4-8.9
		c-11.2-5.3-19.1-10.3-25.6-14.3c-3.5-2.2-7.1-3.3-10.7-3.3c-4.5,0-8.6,1.7-12,4.4v0.4c3.4-2.7,7.4-4.4,12-4.4c3.5,0,7,1.1,10.5,3.2
		c6.4,4,14.4,8.9,25.6,14.3c10.6,5,20.2,8,29.5,8.9c1.1,0.1,2.2,0.2,3.5,0.4c4.5,0.5,10,1.1,15,1.1c3.9,0,6.8-0.4,9-1.1
		c2-0.7,3.4-2,4.9-3.4c1.7-1.6,3.4-3.1,5.8-3.6c0.5-0.1,1-0.1,1.4-0.1c1.4,0,2.7,0.4,3.9,0.7c1.2,0.4,2.5,0.7,3.9,0.7
		c0.7,0,1.4-0.1,2.1-0.3c2.2-0.6,4.1-2.4,5.9-4.2c1.5-1.4,3-2.9,4.7-3.7c2.6-1.3,5-1.9,6.9-1.9c2,0,3.4,0.8,3.8,2.2
		c0.6,2.2-1.2,6.1-6.8,9.6c-2.1,1.3-4.5,1.5-6.3,1.5c-0.8,0-1.7,0-2.5-0.1c-0.8,0-1.6-0.1-2.3-0.1c-1.7,0-3.6,0.1-5.3,1.2
		c-1.9,1.2-3.3,4.1-4.6,6.9c-0.8,1.7-1.6,3.3-2.4,4.5c-6.8,9.3-7.3,19.4-5.8,31.6c0.5,4.2,1.4,8.3,2.4,12.3h0.3
		c-1-4-1.9-8.2-2.4-12.4c-1.5-12.1-1.1-22.1,5.7-31.3c0.8-1.1,1.6-2.8,2.4-4.5C122.2,399,123.6,396.1,125.4,394.9z"/>
	<path d="M156.7,60.9c-1.7,0-4.2,1.1-5.9,6.3c-2,5.9,1.9,7.2,6,8.7c0.7,0.3,1.5,0.5,2.2,0.8c1.6,0.6,3,1,4,1c1.2,0,2-0.4,2.5-1.2
		c1.5-2.4-0.9-7.8-2-10C161.6,63,159.1,60.9,156.7,60.9z M165.1,76.3c-0.8,1.3-2.8,1.3-5.9,0c-0.7-0.3-1.5-0.6-2.2-0.8
		c-4-1.4-7.5-2.6-5.6-8.1c1.3-3.9,3.2-6,5.5-6c2.2,0,4.5,2,6.3,5.4C165.3,71.2,166,74.7,165.1,76.3z"/>
	<path d="M27,224.9c0.4-0.5,0.9-1.1,1.4-1.6c6.4-7.6,13.1-15.4,5.5-24.8c-5.9-7.2-14.7-13.2-22.5-18.5c-1.6-1.1-3.1-2.1-4.6-3.2
		c-1-0.7-2.4-1.7-4-2.9C2,173.4,1,172.7,0,172v0.4c0.9,0.7,1.8,1.3,2.7,1.9c1.6,1.2,2.9,2.2,4,2.9c1.5,1,3,2.1,4.6,3.2
		c7.8,5.3,16.6,11.2,22.4,18.4c7.4,9.2,0.8,16.9-5.5,24.4c-0.5,0.5-0.9,1.1-1.4,1.6c-5.6,6.7-12.7,15.6-18.4,25.5
		c-3.4,6-6.3,12.4-8.4,18.9v1c2.2-6.8,5.1-13.4,8.7-19.7C14.3,240.5,21.4,231.6,27,224.9z"/>
	<path d="M162.6,448.3c-0.4-1.6-1.2-2.7-1.9-3.8c-1.1-1.7-2.1-3.1-1.7-5.9c0.5-3.7,5-12.9,9.9-12.9h0.1c2.4,0.1,4,0.7,4.6,1.8
		c1.1,2.1-0.9,5.5-2.5,8.3c-0.9,1.5-1.6,2.8-1.8,3.7c-0.3,1.7,0.5,2.7,1.2,3.6c0.6,0.7,1.1,1.4,1.1,2.5c-0.1,2.2-1,3.2-2,4.3
		l-0.1,0.1h0.4c1-1.1,2-2.2,2.1-4.4c0-1.1-0.6-1.9-1.2-2.7c-0.7-0.9-1.4-1.8-1.1-3.4c0.1-0.8,0.9-2.1,1.7-3.6
		c1.7-2.9,3.8-6.4,2.5-8.6c-0.7-1.2-2.3-1.9-4.9-2c-0.1,0-0.1,0-0.2,0c-5,0-9.7,9.4-10.2,13.2c-0.4,2.8,0.6,4.4,1.7,6.1
		c0.7,1.1,1.4,2.2,1.9,3.7c0.2,0.6,0.3,1.1,0.3,1.6h0.3C162.9,449.5,162.8,449,162.6,448.3z"/>
	<path d="M21.3,123.7c7.6,3.9,14.1,5.7,20.3,5.7c6.6,0,12.4-2,19.1-4.3c3.8-1.3,8.2-2.8,13.1-4c2.5-0.6,4.7-0.7,6.1-0.7
		c1,0,1.9,0,2.8,0.1c0.8,0,1.6,0.1,2.4,0.1c4.1,0,7.3-1,10.8-5.7c2.4-3.2,3.3-5.7,4.1-7.9c1.2-3.3,2.1-5.9,7.3-9.6
		c1.3-1,3.2-1.7,5.1-2.4c3-1.2,5.5-2.2,5.6-3.9c0.1-1.4-1.5-2.9-5.1-4.9c-4.2-2.3-10.3-2.6-15.7-2.6c-2.4,0-4.9,0.1-7.3,0.1
		c-2.4,0.1-5,0.1-7.4,0.1c-5.4,0-9.2-0.4-12.2-1.2C52.9,78,36.6,69,22.2,61.1C14.7,57,7.3,53,0,49.5v0.6c7.2,3.4,14.5,7.4,22,11.5
		c14.4,7.9,30.8,16.9,48.2,21.6c3.1,0.8,6.9,1.2,12.4,1.2c2.4,0,5-0.1,7.4-0.1c2.4-0.1,4.9-0.1,7.3-0.1c5.3,0,11.3,0.3,15.4,2.6
		c3.3,1.8,4.9,3.2,4.8,4.4c-0.1,1.4-2.6,2.4-5.3,3.4c-1.9,0.7-3.8,1.5-5.2,2.5c-5.3,3.8-6.3,6.6-7.5,9.8c-0.8,2.2-1.7,4.6-4,7.8
		c-3.4,4.6-6.5,5.5-10.4,5.5c-0.8,0-1.6,0-2.4-0.1c-0.9,0-1.8-0.1-2.8-0.1c-1.4,0-3.7,0.1-6.2,0.7c-4.9,1.2-9.3,2.7-13.1,4
		c-6.7,2.3-12.5,4.2-19,4.2c-6.2,0-12.6-1.8-20.1-5.7c-6.9-3.5-13.1-8.2-19.1-12.8c-0.8-0.6-1.7-1.3-2.5-1.9v0.6
		c0.7,0.6,1.5,1.1,2.2,1.7C8.2,115.5,14.4,120.2,21.3,123.7z"/>
	<path d="M264.7,436.1c-0.5-0.2-1.2-0.3-2.2-0.3c-5.8,0-18.1,3.5-18.2,3.5c-1.4,0.4-2.7,0.8-4.1,1.3c-6.8,2.3-11.8,5.3-15.5,9.5h0.4
		c3.6-4.1,8.6-7,15.2-9.2c1.3-0.4,2.7-0.9,4.1-1.2c0.1,0,12.4-3.5,18.1-3.5c0.9,0,1.7,0.1,2.1,0.3c2.2,1,1.4,3.5-0.4,9
		c-0.4,1.3-0.9,2.9-1.4,4.6h0.3c0.5-1.7,1-3.2,1.4-4.5C266.3,439.9,267.2,437.1,264.7,436.1z"/>
	<path d="M251.1,445.1c-1.4,0-3.1,0.3-5,0.8c-1.3,0.4-2.5,0.8-3.8,1.2c-2.6,0.9-4.8,1.8-6.7,2.9h1c1.7-0.9,3.7-1.7,5.9-2.5
		c1.2-0.4,2.5-0.8,3.8-1.2c1.9-0.5,3.5-0.8,4.9-0.8c2.5,0,4,0.9,4.5,2.7c0.1,0.5,0.2,1.1,0.1,1.7h0.5c0-0.7,0-1.3-0.2-1.8
		C255.7,446.8,254.5,445.1,251.1,445.1z"/>
	<path d="M282.5,428.6c-0.9-1.8-3.9-2.4-9.2-1.9c-9.6,0.8-19.7,2.7-30.9,5.9c-1.5,0.4-3,0.9-4.4,1.3c-10.2,3.4-17.3,8.6-21.9,16.1
		h0.4c4.6-7.4,11.6-12.5,21.6-15.8c1.4-0.5,2.9-0.9,4.4-1.3c11.2-3.2,21.3-5.1,30.9-5.9c1.1-0.1,2.1-0.1,3-0.1
		c3.4,0,5.3,0.6,5.9,1.9c1.1,2.2-2,6.4-5.1,10.4c-0.5,0.7-1.1,1.4-1.6,2.1c-2.1,2.9-4,5.8-5.7,8.7h0.3c1.7-2.9,3.5-5.7,5.6-8.6
		c0.5-0.7,1.1-1.4,1.6-2.1C280.7,435,283.7,431,282.5,428.6z"/>
	<path d="M292.6,433.7c4.6-4.3,6.5-7.8,5.5-10.2c-1.1-2.9-6.2-4.3-15.1-4.3c-3,0-6.3,0.2-10.3,0.5c-10.1,0.8-20.6,2.8-32.2,6.1
		c-1.6,0.4-3.2,0.9-4.7,1.4c-13.3,4.4-22.3,11.8-27.6,22.8h0.3c5.3-10.8,14.2-18.1,27.4-22.5c1.5-0.5,3.1-1,4.7-1.4
		c11.6-3.3,22.2-5.3,32.2-6.1c4-0.3,7.3-0.5,10.3-0.5c8.8,0,13.7,1.4,14.8,4.2c0.9,2.3-0.9,5.6-5.4,9.9c-0.9,0.9-1.8,1.7-2.5,2.4
		c-3.5,3.5-6.4,6.5-8.7,9.5c-1.1,1.5-2.2,3-3.2,4.6h0.4c1-1.5,2-3,3.1-4.4c2.2-3,5.2-6,8.6-9.5C290.8,435.4,291.7,434.5,292.6,433.7
		z"/>
	<path d="M25.9,114.7c7.4,3.8,14.6,5.6,22.2,5.6c4.2,0,13.3-1.7,21.2-4.6c6.9-2.5,15.2-6.7,15.2-12.3c0-6.6-12.8-10.3-20.4-12.5
		C62.4,90.4,61,90,60,89.7c-13.7-5-27.3-11.2-42.7-19.7C11.4,66.8,5.7,63.6,0,60.8v0.3c5.6,2.8,11.4,6,17.2,9.2
		C32.7,78.7,46.3,85,60,90c1,0.4,2.4,0.8,4.1,1.2c7.6,2.2,20.2,5.8,20.2,12.2c0,9.7-27.4,16.6-36.2,16.6c-7.5,0-14.7-1.8-22-5.6
		c-6.1-3.1-11.9-7.6-17.6-11.8C5.8,100.5,3,98.4,0,96.3v0.4c2.9,2,5.6,4.1,8.3,6.1C14,107.1,19.8,111.6,25.9,114.7z"/>
	<path d="M29.1,108.5c6.4,3.3,12.6,4.9,19,4.9c5.5,0,12.8-1.6,15.6-5.3c1.2-1.6,1.6-3.4,1-5.5c-1.3-4.8-11.4-8.3-18.8-10.8
		c-2.4-0.8-4.5-1.5-5.7-2.1c-8.6-4-17-8.6-25.2-13.1l-0.9-0.5C9.2,73.5,4.6,71,0,68.6v0.3c4.5,2.3,9.1,4.9,13.8,7.4l0.9,0.5
		C22.9,81.4,31.4,86,40,90c1.3,0.6,3.4,1.3,5.8,2.1c6.9,2.3,17.4,5.9,18.6,10.6c0.5,2,0.2,3.7-1,5.2c-2.7,3.5-9.9,5.1-15.4,5.1
		c-6.3,0-12.5-1.6-18.8-4.8c-5.6-2.9-11.2-7.1-16.6-11.2c-3.9-3-8.1-6.1-12.7-9.1v0.4c4.5,3,8.7,6.1,12.5,9
		C17.9,101.4,23.5,105.6,29.1,108.5z"/>
	<path d="M177.5,6c0.5-2,1-4,1.5-6h-0.5c-0.5,1.9-0.9,3.9-1.4,5.9c-0.9,3.7-1.9,7.5-2.6,11.5c-2.6,13-4.8,30.2,0.9,46.8
		c2.3,6.7,8.1,12.3,13.2,17.1c4.5,4.3,8.5,8.1,8.1,11.2c-0.2,1.4-1.2,2.7-3.2,3.9c-0.9,0.6-2.5,0.8-4.7,0.8
		c-7.7,0-21.2-3.4-31.2-6.7C146.5,86.8,133.1,81,131,74c-0.7-2.2-0.1-4.5,1.6-6.7c2.2-2.8,4.6-5.3,6.9-7.7
		c4.6-4.7,8.9-9.2,11.7-15.8c4.1-9.5,4.6-19.3,1.5-29.3c-0.7-2.4-1.5-4.7-2.2-6.6c-1-2.9-1.8-5.5-2.4-7.8h-0.5c0.6,2.4,1.5,5,2.5,8
		c0.7,2,1.4,4.2,2.2,6.6c3.1,9.9,2.6,19.6-1.4,29c-2.8,6.5-7.1,11-11.6,15.7c-2.3,2.4-4.7,4.9-7,7.8c-1.8,2.3-2.4,4.7-1.7,7.1
		c2.1,7.2,15.7,13.1,26.7,16.8c10.1,3.4,23.7,6.8,31.4,6.8c2.3,0,4-0.3,5-0.9c2.2-1.3,3.3-2.7,3.5-4.3c0.4-3.4-3.6-7.2-8.3-11.6
		c-5.1-4.8-10.8-10.3-13.1-16.9c-5.7-16.5-3.5-33.5-0.9-46.5C175.6,13.5,176.6,9.7,177.5,6z"/>
	<path d="M94.6,239.9c-0.5,0.8-1,1.6-1.4,2.2c-5.1,7.1-11,13.5-17.8,20.4c-0.9,0.9-1.8,1.9-2.8,2.8c-5.6,5.6-11.3,11.4-14.8,18.3
		c-1.3,2.7-1.7,4.7-1.2,6c0.3,0.6,0.7,1,1.3,1.1c0.3,0.1,0.5,0.1,0.8,0.1c1.2,0,2.9-0.6,4.7-1.7c3.7-2.2,7.2-5,10.6-7.7
		c2.8-2.2,5.7-4.5,8.6-6.4c12-7.9,19.9-13.2,23.6-28c0.8-3.1,1.2-10.1-1.2-13.1c-0.8-1-1.9-1.5-3.2-1.5
		C99,232.6,96.5,236.8,94.6,239.9z M102.3,232.8c1.1,0,2,0.5,2.7,1.4c2.3,3,1.9,9.8,1.1,12.8c-3.7,14.7-11.5,19.9-23.5,27.8
		c-3,2-5.9,4.2-8.6,6.4c-3.4,2.7-6.9,5.4-10.6,7.7c-2.2,1.4-4.2,1.9-5.3,1.6c-0.5-0.2-0.9-0.5-1.1-1c-0.5-1.2-0.1-3.2,1.2-5.8
		c3.4-6.8,9.2-12.6,14.7-18.2c0.9-1,1.9-1.9,2.8-2.8c6.7-6.9,12.7-13.3,17.8-20.4c0.4-0.6,0.9-1.4,1.4-2.2c1.8-3,4.3-7.1,7.2-7.2
		C102.2,232.8,102.2,232.8,102.3,232.8z"/>
	<path d="M32.3,102.3c2,1,7.6,2.8,11.7,2.8c1.5,0,2.6-0.2,3.3-0.7c1.6-1,2.3-2,2.1-2.9c-0.3-2.1-4.9-3.4-8.6-4.4
		c-1.5-0.4-2.8-0.8-3.6-1.1c-8.8-4.1-17.4-8.8-25.7-13.3l-0.9-0.5c-3.6-2-7.1-4-10.6-5.8V77c3.4,1.8,6.9,3.7,10.4,5.6l0.9,0.5
		c8.3,4.6,16.9,9.3,25.7,13.3c0.8,0.4,2.1,0.7,3.6,1.2c3.4,0.9,8,2.2,8.2,4c0.1,0.7-0.5,1.6-1.9,2.5c-0.6,0.4-1.7,0.6-3,0.6
		c-3.9,0-9.5-1.8-11.4-2.8c-5-2.6-10.3-6.6-15.5-10.5c-4.9-3.7-10.5-8-17-11.8v0.6c6.3,3.8,11.9,8,16.7,11.7
		C21.9,95.7,27.2,99.8,32.3,102.3z"/>
	<path d="M17.3,292.6c1.2-25.9,19.1-46.3,33.4-62.8l1.1-1.3c17.1-19.5,16.4-26.4,8.4-34.3c-8.8-8.7-22.6-21.7-41.4-34.7
		C12.4,155.1,6.1,151,0,147.4v0.6c6,3.6,12.2,7.6,18.5,11.9c18.7,13,32.5,26,41.3,34.6c7.8,7.7,8.4,14.3-8.4,33.6l-1.1,1.3
		c-14.4,16.5-32.3,37-33.5,63.1C15.6,317,6.4,324.2,0,326.2v0.5C6.6,324.8,16.1,317.5,17.3,292.6z"/>
	<path d="M307.1,419.8c-2.9-6.3-14.8-7.6-24.3-7.6c-3.3,0-6.9,0.2-10.7,0.5c-10.5,0.9-21.5,3-33.6,6.4c-1.7,0.5-3.4,1-5,1.5
		c-10.4,3.5-18.4,8.4-24.5,15.3c-3.6,4.1-6.5,8.8-8.7,14.2h0.3c5.8-14.3,16.5-23.7,32.9-29.1c1.6-0.5,3.3-1.1,5-1.5
		c12.1-3.4,23-5.5,33.5-6.4c3.8-0.3,7.3-0.5,10.7-0.5c9.4,0,21.1,1.3,24,7.4c3.1,6.7-4.5,13.9-9.6,18.7c-0.9,0.8-1.7,1.6-2.4,2.3
		c-3.3,3.3-6.1,6.1-8,8.7c-0.1,0.2-0.2,0.3-0.3,0.5h0.4c0.1-0.1,0.1-0.2,0.2-0.3c1.9-2.6,4.7-5.4,8-8.7c0.7-0.7,1.5-1.4,2.4-2.3
		C302.5,434,310.3,426.7,307.1,419.8z"/>
	<path d="M101,403.6c-4.4-1.1-9.2-1.2-13.9-1.3c-2.7,0-5.4-0.1-8.1-0.3c-12.6-1.2-23.4-4.1-34-9.2c-11.5-5.5-19.7-10.6-26.2-14.6
		c-2.4-1.5-4.7-2.2-7-2.2c-4.2,0-8.5,2.7-12,7.3v0.5c3.4-4.7,7.8-7.5,12-7.5c2.2,0,4.5,0.7,6.8,2.2c6.6,4.1,14.7,9.1,26.3,14.6
		c10.6,5.1,21.4,8,34.1,9.2c2.6,0.3,5.4,0.3,8.1,0.3c4.6,0.1,9.4,0.1,13.8,1.3c6.9,1.8,6.6,6.8,5.7,12.7c-1.2,7-2.1,14-1.2,21.9
		c0.5,3.9,1.2,7.8,2.1,11.5h0.3c-0.9-3.8-1.7-7.6-2.1-11.5c-1-7.9,0-14.8,1.2-21.8C107.9,410.8,108.2,405.5,101,403.6z"/>
	<path d="M127.6,8.6c6.9,21.3,9.6,32.9-7.4,42.8c-2.8,1.6-6,2.8-9.4,3.5c-2.9,0.6-6.2,0.9-9.6,0.9c-31.6,0-75-26.4-98.4-40.6L2,14.7
		c-0.7-0.4-1.4-0.9-2.1-1.3V14c0.6,0.4,1.2,0.7,1.8,1.1l0.8,0.5c23.5,14.3,67,40.8,98.8,40.8c3.5,0,6.7-0.3,9.7-1
		c3.5-0.7,6.7-2,9.6-3.6c17.3-10,14.5-21.8,7.6-43.4c-0.9-2.7-1.8-5.6-2.6-8.5H125C125.8,3,126.7,5.9,127.6,8.6z"/>
	<path d="M87.7,5.6c0.2,0.8,0.5,1.7,0.8,2.7c0.9,3,0.7,5-0.5,5.9c-0.6,0.5-1.5,0.7-2.7,0.7c-4.9,0-13-4.4-15.7-5.8
		c-1.3-0.7-2.3-1.2-3.1-1.6l-4.1-2c-3.8-1.8-7.4-3.7-11-5.6h-0.6c3.7,2,7.6,3.9,11.5,5.8l4.1,2c0.8,0.4,1.7,0.9,3.1,1.6
		c2.7,1.4,10.9,5.8,15.8,5.8c1.2,0,2.2-0.3,2.8-0.8c1.3-1.1,1.5-3.2,0.6-6.3c-0.3-1-0.6-2-0.8-2.7c-0.5-1.8-1-3.6-1.4-5.5h-0.3
		C86.7,1.9,87.2,3.8,87.7,5.6z"/>
	<path d="M118.2,11.7c2.8,8.6,5.4,19.5,1.3,26.6c-2.1,3.5-5.7,5.9-10.7,7c-2.3,0.5-4.8,0.7-7.5,0.7C72.4,46,30.5,20.5,8,6.8L3.9,4.3
		C2.6,3.5,1.3,2.8,0,2.1v0.3c1.3,0.7,2.5,1.3,3.7,2.1L7.9,7c22.5,13.7,64.5,39.2,93.4,39.2c2.8,0,5.3-0.2,7.6-0.7
		c5.1-1.1,8.8-3.5,10.9-7.1c4.2-7.3,1.5-18.2-1.3-26.9c-1.2-3.7-2.4-7.6-3.4-11.6h-0.3C115.8,4,117,7.9,118.2,11.7z"/>
	<path d="M94.5,3.8c0.2,0.7,0.4,1.5,0.7,2.5c1.5,4.8,3.6,12,1.6,15.3c-0.8,1.4-2.2,2.2-3.9,2.6c-0.7,0.2-1.5,0.2-2.3,0.2
		c-7.3,0-18.3-5.9-24.2-9c-1.1-0.6-2.1-1.1-2.9-1.5L63,13.6c-0.6-0.3-1.1-0.6-1.6-0.8l-1.9-0.9C51.5,8,43.9,4,37,0h-0.6
		c7.1,4.1,14.8,8.1,23,12.1l1.9,0.9c0.5,0.2,1,0.5,1.6,0.8l0.5,0.3c0.7,0.4,1.7,0.9,2.9,1.5c5.9,3.2,16.9,9.1,24.3,9.1
		c0.9,0,1.7-0.1,2.4-0.2c1.8-0.4,3.2-1.3,4.1-2.8C99.2,18.3,97,11,95.5,6.2c-0.3-1-0.5-1.8-0.7-2.5c-0.3-1.2-0.7-2.5-1-3.7h-0.3
		C93.8,1.3,94.2,2.5,94.5,3.8z"/>
	<path d="M101.3,2c1.4,5.3,2.9,10.9,3,16.5c0.2,7.4-2.7,11.6-8.5,12.5c-0.9,0.1-1.8,0.2-2.8,0.2c-10.2,0-24.7-7.3-32.5-11.2
		c-0.8-0.4-1.5-0.7-2.1-1l-1.9-0.9C44.2,12.2,32.9,6,23.3,0h-0.6c9.8,6.1,21.2,12.4,33.6,18.4l1.9,0.9c0.6,0.3,1.3,0.7,2.1,1
		c7.8,3.9,22.4,11.2,32.7,11.2c1,0,2-0.1,2.9-0.2c6-1,9-5.3,8.8-12.8c-0.2-5.7-1.6-11.3-3.1-16.6c-0.2-0.6-0.3-1.3-0.5-1.9h-0.3
		C100.9,0.7,101.1,1.3,101.3,2z"/>
	<path d="M111.5,13.8c0.1,0.5,0.3,0.9,0.4,1.4c1.6,4.9,3.3,9.9,0.6,14.7c-2.2,4.1-6.7,7.3-11.5,8.4c-0.5,0.1-1,0.2-1.5,0.2
		c-1.2,0.1-2.4,0.2-3.7,0.2c-13.4,0-29.2-7.7-40.7-13.4l-1.9-0.9c-14.8-7.2-29-15.9-41.6-23.6c-0.5-0.3-1-0.6-1.4-0.9H9.7
		C10.6,0.5,11.5,1,11.5,1c12.6,7.7,26.9,16.3,41.7,23.6l1.9,0.9c11.5,5.7,27.3,13.4,40.8,13.4c1.3,0,2.5-0.1,3.7-0.2
		c0.5-0.1,1-0.1,1.5-0.2c4.8-1.1,9.4-4.4,11.7-8.5c2.7-5,1.1-10.1-0.6-15c-0.2-0.5-0.3-0.9-0.4-1.4c-1.4-4.4-2.8-9-3.9-13.7h-0.3
		C108.7,4.8,110.1,9.4,111.5,13.8z"/>
	<path d="M100.7,223.2c-4.4,1.1-8.2,7.2-11.3,12c-1.1,1.7-2.1,3.3-3,4.5c-5,6.4-10.6,12.2-16,17.8c-1.4,1.5-3.2,3.1-5.1,4.8
		c-5.6,5.2-12.5,11.6-14.6,17.5c-1.8,5-0.7,9.7,0.3,14.2c0.8,3.7,1.7,7.6,1,11.7c-0.4,2.5-1.9,5-3.5,7.6c-1.9,3.1-3.9,6.3-4,9.8
		c0,1.2,0.1,2.3,0.5,3.5c1.3,3.7,2.7,5.4,4.3,5.4s3.4-1.7,6-5.8c2.5-3.9,3.5-8.5,4.4-12.9c1-4.4,1.9-9,4.5-13
		c4.8-7.6,13.3-13.1,20.7-18.1c0.6-0.4,1.3-0.8,1.9-1.2c12.4-8.2,22.2-14.7,26.5-32.2c1.2-4.6,0.9-16.4-3.9-22.4
		C107.2,223.4,104.2,222.4,100.7,223.2z M109.1,226.7c4.2,5.4,5.1,16.8,3.8,22c-4.3,17.3-14,23.7-26.3,31.9
		c-0.6,0.4-1.2,0.8-1.9,1.2c-7.5,4.9-16,10.5-20.9,18.2c-2.6,4-3.6,8.7-4.5,13.2c-0.9,4.4-1.9,8.9-4.4,12.8
		c-1.7,2.8-3.8,5.6-5.6,5.6c-1.4,0-2.6-1.7-3.9-5.1c-0.4-1.1-0.6-2.1-0.5-3.3c0.1-3.3,2.1-6.5,3.9-9.6c1.6-2.6,3.2-5.1,3.6-7.7
		c0.7-4.1-0.2-8-1-11.8c-1-4.7-2-9.1-0.3-14c2.1-5.8,9-12.2,14.5-17.3c1.9-1.7,3.7-3.4,5.1-4.9c5.4-5.6,11-11.4,16-17.8
		c0.9-1.2,1.9-2.8,3-4.5c3-4.8,6.8-10.8,11-11.8c0.8-0.2,1.5-0.3,2.2-0.3C105.4,223.4,107.4,224.5,109.1,226.7z"/>
	<path d="M105.3,201.5c-2.4-3.4-4.5-3.9-6.6-4.3c-1.5-0.3-3.1-0.7-4.9-2l-0.1-0.2c-5.1-5.7-22.2-24.3-28-24.3
		c-0.7,0-1.2,0.2-1.6,0.7c-0.8,1-0.7,3,0.1,6.2c0.5,1.9,5.4,4.5,10.5,7.2c4.3,2.3,8.7,4.7,10.2,6.4c1.3,1.6,3.1,3.8,3,4.6
		c0,0.2-0.3,0.3-0.7,0.5c-0.9,0.4-2.2,1.1-1.5,4.3c0.5,2.2,1.8,4.3,3.2,6.4c1.2,2,2.4,3.8,2.8,5.6c1.3,4.9-6.8,13.9-12.1,19.9
		c-1.8,2-3.3,3.7-4.2,5c-3.9,5.2-8.7,9.9-13.4,14.5c-9.1,9-18.5,18.3-21.8,31.1C35,302.3,34,319.2,37,333.4
		c1.6,7.6,7.1,18.1,12.5,18.1c3.3,0,5.8-4,7.2-11.9c5.6-30.4,20.9-40.5,35.6-50.3c13.1-8.7,25.5-16.9,30.8-38.1
		c2-8-1.1-20.4-5.1-27.2c-1.8-3-4-4.8-6.2-6.4c-1.9-1.5-3.7-2.8-5.1-5c-1-1.6-0.8-3.4-0.6-5.3C106.3,205.3,106.5,203.3,105.3,201.5z
		 M106.1,212.9c1.5,2.3,3.3,3.7,5.3,5.2c2.1,1.6,4.3,3.3,6,6.2c3.9,6.7,7,18.8,5,26.7c-5.3,21-17.5,29.1-30.5,37.7
		C77,298.6,61.6,308.8,56,339.5c-1.4,7.4-3.6,11.3-6.5,11.3c-4.5,0-10.1-9.5-11.8-17.6c-3-14.1-2-30.9,2.9-49.9
		c3.3-12.6,12.6-21.8,21.6-30.8c4.7-4.6,9.6-9.4,13.5-14.6c0.9-1.3,2.5-3,4.2-4.9c5.8-6.5,13.6-15.3,12.3-20.6
		c-0.5-1.9-1.7-3.8-2.9-5.8c-1.3-2-2.6-4.2-3.1-6.2c-0.6-2.6,0.3-3.1,1.2-3.5c0.5-0.2,0.9-0.5,1-1c0.2-0.7-0.3-1.9-3.1-5.2
		c-1.6-1.9-6.1-4.3-10.4-6.6c-4.5-2.4-9.7-5.2-10.1-6.8c-1-3.6-0.7-5-0.2-5.6c0.2-0.3,0.6-0.4,1-0.4c4.4,0,17.1,12.4,27.5,24.1
		c0.1,0.1,0.2,0.2,0.2,0.2c2,1.5,3.7,1.8,5.2,2.2c2.1,0.5,4,0.9,6.2,4.1c1.1,1.5,0.9,3.4,0.7,5.3C105.2,209.2,105,211.2,106.1,212.9
		z"/>
	<path d="M0,136.6c33.7,19.1,70.1,49.4,76.7,64.5c4,9.1-5.7,19.9-17.9,33.6c-13.9,15.6-31.1,35-32.2,58.2
		c-1.3,28.4-15.4,40-26.7,43.5v0.7c11.5-3.5,26-15.3,27.3-44.2c1.1-23,18.2-42.3,32-57.8c12.4-13.9,22.1-24.9,18-34.3
		C70.7,185.7,34,155,0,135.9V136.6z"/>
	<path d="M169.9,0.1C169.9,0,169.9,0,169.9,0.1L169.5,0c-0.6,0.7-1.3,1.4-1.7,2.4c-1.2,2.9-0.9,6-0.5,8.9c0.2,1.6,0.4,3.3,0.3,5
		c-0.1,2.6-0.7,5.3-1.2,7.9c-0.4,2.2-0.9,4.4-1.1,6.6C164,44,165.2,56,168.8,66.3c0.7,2.1,3.6,5.5,6.7,9c3.9,4.5,8,9.1,8.1,11.9
		c0,0.6-0.1,1.1-0.5,1.5c-1.1,1.1-3.9,1.3-8.4,0.6c-3.3-0.5-6.5-1.9-9.6-3.2c-1.8-0.8-3.6-1.6-5.5-2.2c-0.5-0.2-1.1-0.4-1.6-0.5
		c-6.6-2.2-15.8-5.2-17.1-10.5c-0.6-2.5,0.6-5.4,3.6-8.5c4.8-5,9.7-10.1,13.1-17.9c3.2-7.5,6.9-22,5.5-29.9c-0.3-1.6-1-2.7-1.6-3.8
		c-0.9-1.4-1.7-2.7-1.3-5.1c0.3-1.8,1-2.8,1.6-3.7c0.7-1.1,1.4-2.1,1.2-4h-0.3c0.2,1.8-0.4,2.7-1.1,3.8c-0.6,0.9-1.3,2-1.6,3.9
		c-0.4,2.5,0.5,3.9,1.4,5.4c0.6,1,1.3,2.1,1.6,3.6c1.4,7.8-2.3,22.3-5.5,29.7c-3.3,7.7-8.2,12.8-13,17.8c-3.1,3.2-4.4,6.2-3.7,8.8
		c1.3,5.4,10.5,8.5,17.3,10.7c0.6,0.2,1.1,0.4,1.6,0.5c1.8,0.6,3.7,1.4,5.5,2.2c3.1,1.3,6.3,2.7,9.6,3.3c1.8,0.3,3.3,0.4,4.6,0.4
		c2.1,0,3.4-0.4,4.1-1.1c0.4-0.4,0.6-1,0.6-1.7c-0.2-2.9-4.3-7.6-8.2-12.1c-3-3.5-5.9-6.8-6.6-8.9c-3.6-10.3-4.7-22.2-3.4-35.4
		c0.2-2.2,0.6-4.4,1.1-6.5c0.5-2.6,1-5.3,1.2-8c0.1-1.7-0.1-3.4-0.3-5c-0.4-3-0.7-5.9,0.5-8.7C168.5,1.5,169.2,0.7,169.9,0.1z"/>
	<path d="M137.1,5.6c6.3,19.7,12.9,40.1-11.8,54.4c-3.7,2.1-7.8,3.7-12.3,4.7c-3.6,0.8-7.5,1.2-11.6,1.2C67.9,65.8,26.1,41,0,25.1
		v0.8c26.1,15.9,67.8,40.6,101.3,40.6c4.2,0,8.1-0.4,11.8-1.2c4.5-1,8.8-2.6,12.5-4.7c25.2-14.6,18.6-35.2,12.2-55.2
		c-0.6-1.8-1.2-3.6-1.7-5.4h-0.7C135.9,1.9,136.5,3.7,137.1,5.6z"/>
	<path d="M95.9,413.1c-3.6-3.4-9.1-3.7-13.9-3.9c-1.2-0.1-2.4-0.1-3.5-0.2c-13.4-1.3-25-4.4-36.3-9.8c-9.8-4.7-17.3-8.9-23.8-13.4
		c-1.8-1.2-3.6-1.8-5.4-1.8c-4.1,0-8,3.2-10.3,8.6c-0.9,2-1.8,4-2.7,6v0.7c1-2.2,2-4.4,3-6.6c2.3-5.3,6.1-8.4,10-8.4
		c1.7,0,3.5,0.6,5.2,1.8c6.5,4.5,14.1,8.7,23.8,13.4c11.4,5.4,22.9,8.6,36.4,9.8c1.1,0.1,2.3,0.2,3.5,0.2c4.8,0.2,10.1,0.5,13.7,3.8
		c4.1,3.8,3.5,11.1,3,17.5c-0.3,3.1-0.5,6.1-0.2,8.5c0.4,3.6,1.3,7.2,2.2,10.7h0.3c-0.9-3.5-1.8-7.1-2.2-10.7
		c-0.3-2.4-0.1-5.4,0.2-8.5C99.5,424.4,100.1,417,95.9,413.1z"/>
	<path d="M2.4,430.5c-0.9-0.4-1.7-0.7-2.4-1v0.3c0.7,0.4,1.5,0.7,2.3,1c0.4,0.2,0.9,0.3,1.3,0.5c6.4,2.7,11.3,5.3,15.5,8
		c5.2,3.5,11,7.1,17.3,10.7H37c-6.5-3.7-12.5-7.4-17.8-10.9c-4.1-2.8-9.1-5.3-15.5-8.1C3.3,430.8,2.8,430.6,2.4,430.5z"/>
	<path d="M15.1,445.1c2.4,1.6,4.9,3.2,7.5,4.9h0.6c-2.8-1.7-5.4-3.4-7.9-5.1c-3.5-2.4-9.5-5.4-15.3-7.8v0.3
		C5.8,439.7,11.7,442.8,15.1,445.1z"/>
	<path d="M9.3,208.2c-0.5-3.2-2.7-6.1-6.8-8.8c-0.8-0.6-1.7-1.1-2.5-1.7v0.4c0.8,0.5,1.6,1.1,2.4,1.6c4,2.7,6.2,5.5,6.7,8.6
		c0.8,5.2-3.1,10.5-8,16.5c-0.3,0.4-0.7,0.9-1.1,1.4v0.5c0.5-0.7,0.9-1.3,1.3-1.8C6.2,218.9,10.2,213.5,9.3,208.2z"/>
	<path d="M7.5,448.3L7.5,448.3c-2.4-1.5-4.9-2.8-7.5-3.9v0.3c2.5,1.1,5,2.4,7.4,3.9c0,0,1.2,0.7,2.3,1.4h0.6
		C8.2,448.8,7.7,448.4,7.5,448.3z"/>
	<path d="M68.2,1c1.9,0.9,4.4,2.2,6.7,2.2c1,0,1.8-0.2,2.5-0.7c0.1,0,0.1-0.1,0.2-0.1C78.3,1.8,78.7,1,79,0h-0.5
		c-0.3,0.8-0.7,1.5-1.3,2l-0.1,0.1c-0.6,0.4-1.3,0.6-2.2,0.6c-2.1,0-4.7-1.3-6.5-2.2c-0.3-0.1-0.5-0.3-0.8-0.4c0,0-0.1-0.1-0.3-0.2
		h-1.1l1.2,0.6C67.7,0.7,67.9,0.9,68.2,1z"/>
	<path d="M72.9,441c0.4-1.3,0.2-2.4-0.4-3.3c-1.5-2.3-5.4-2.8-8.3-3.3c-0.5-0.1-0.9-0.1-1.3-0.2c-0.1,0-0.4-0.1-0.6-0.1
		c-1.5-0.3-4.7-0.9-7-0.9c-1.4,0-2.3,0.2-2.8,0.7c-0.2,0.2-0.3,0.5-0.3,0.9c0.1,2.6,4.1,4.2,6.5,5.1c0.4,0.1,0.7,0.3,1,0.4
		c0.6,0.3,1.4,0.6,2.1,1c2.4,1.2,5.2,2.6,7.6,2.6c0.3,0,0.6,0,0.9-0.1C71.5,443.5,72.4,442.6,72.9,441z M70.1,443.2
		c-0.2,0-0.5,0.1-0.8,0.1c-2.2,0-4.9-1.3-7.3-2.5c-0.8-0.4-1.5-0.7-2.2-1c-0.3-0.1-0.6-0.3-1-0.4c-2.2-0.9-6-2.4-6.1-4.6
		c0-0.2,0-0.3,0.2-0.4c0.2-0.2,0.8-0.5,2.3-0.5c2.3,0,5.4,0.6,6.9,0.9c0.3,0.1,0.5,0.1,0.7,0.1c0.4,0.1,0.8,0.1,1.3,0.2
		c2.6,0.4,6.6,1,7.9,3c0.5,0.8,0.6,1.7,0.3,2.9C71.9,442.2,71.2,443,70.1,443.2z"/>
	<path d="M92.4,427.6c0.5-2.9,1-6-1-8.3c-2.3-2.8-6.1-3-9.4-3.1h-0.3c-1.2-0.1-2.5-0.1-3.8-0.3c-14.3-1.4-26.6-4.7-38.7-10.5
		c-3.8-1.8-7.6-3.9-11.2-5.9c-2-1.1-4-2.2-6.1-3.3l-0.1-0.1c-2.4-1.3-4.9-2.6-7.4-2.6c-1.3,0-2.6,0.4-3.7,1.1
		c-4.1,2.6-6,7.8-7.9,12.8c-0.9,2.3-1.7,4.4-2.7,6.3v0.6c1.1-2,2-4.3,3-6.8c1.9-4.9,3.8-10,7.8-12.6c1.1-0.7,2.3-1.1,3.6-1.1
		c2.5,0,4.9,1.3,7.3,2.6l0.1,0.1c2,1.1,4.1,2.2,6.1,3.3c3.6,2,7.4,4.1,11.2,5.9c12.1,5.8,24.4,9.1,38.8,10.5
		c1.3,0.1,2.6,0.2,3.8,0.3h0.3c3.3,0.2,7,0.4,9.2,3c1.9,2.2,1.4,5.2,0.9,8c-0.1,0.9-0.3,1.8-0.4,2.7c-0.3,3.3-0.5,6.8-0.2,9.9
		c0.4,3.4,1.1,6.7,1.9,9.8h0.3c-0.8-3.2-1.5-6.4-2-9.9c-0.4-3.1-0.1-6.5,0.2-9.9C92.1,429.4,92.2,428.5,92.4,427.6z"/>
	<path d="M18.2,211.6c2.6-7.3,0-10.2-11.8-18c-0.9-0.6-1.9-1.2-2.8-1.9c-1.2-0.8-2.4-1.6-3.6-2.4v0.4c1.1,0.8,2.2,1.5,3.4,2.3
		c1,0.6,1.9,1.3,2.8,1.9c11.6,7.7,14.2,10.6,11.7,17.7c-2.3,6.4-6.7,11.9-11.4,17.7c-2.2,2.7-4.4,5.4-6.5,8.4v0.5
		c2.2-3.1,4.5-5.9,6.7-8.7C11.4,223.5,15.9,218.1,18.2,211.6z"/>
	<path d="M79.1,423.7c-3.2-1.4-6.6-1.7-9.9-2c-1.9-0.2-3.9-0.4-5.7-0.8c-9.4-1.9-18.6-5-27.3-9.1c-4-1.9-7.8-4-11.6-6.1
		c-0.5-0.3-1.1-0.7-1.8-1.1c-2.1-1.4-4.8-3.1-7.2-3.1c-0.9,0-1.7,0.2-2.4,0.7c-1.8,1.3-2.7,3.8-3.4,6.1c-0.2,0.6-0.4,1.1-0.6,1.6
		c-0.3,0.9-1,2-1.7,3.3c-1.7,3-3.7,6.8-3,9c0.8,2.3,3.7,3.5,6.1,4.5c0.5,0.2,1.1,0.4,1.5,0.7c4.1,1.9,7.6,3.9,10.8,6.1
		c7.9,5.3,17.4,10.9,28,16.5h0.6c-10.7-5.6-20.4-11.3-28.4-16.7c-3.2-2.2-6.7-4.1-10.8-6.1c-0.4-0.2-1-0.4-1.5-0.7
		c-2.3-1-5.2-2.2-5.9-4.3c-0.7-2.1,1.3-5.8,3-8.8c0.7-1.3,1.3-2.4,1.7-3.3c0.2-0.5,0.4-1,0.6-1.6c0.7-2.2,1.6-4.7,3.3-6
		c0.6-0.4,1.4-0.7,2.2-0.7c2.3,0,4.9,1.7,7,3c0.7,0.4,1.3,0.8,1.8,1.1c3.7,2.1,7.6,4.2,11.6,6.1c8.7,4.2,17.9,7.2,27.3,9.1
		c1.9,0.4,3.9,0.6,5.8,0.8c3.3,0.3,6.7,0.6,9.9,2c5.5,2.4,5.5,7.1,5.5,12.1c0,1.6,0,3.3,0.2,5c0.4,3.2,1,6.1,1.7,9h0.3
		c-0.7-2.9-1.3-5.8-1.7-9c-0.2-1.6-0.2-3.3-0.2-4.9C84.7,431,84.8,426.2,79.1,423.7z"/>
	<path d="M65.7,449.2c-14.8-7.3-28.2-14.8-38.6-21.8c-1.4-0.9-2.9-1.7-4.3-2.4c-2-1-4-2.1-5.8-3.6c-2.4-2-3-4-2-6.4
		c0.8-1.9,2.1-2.8,4.1-2.8c3.2,0,7.5,2.6,10.7,4.5c1.2,0.8,2.3,1.4,3.2,1.8c9.2,4.4,19,7.7,29,9.7c2.3,0.5,4.4,0.7,6.5,0.9
		c0.4,0,0.7,0.1,1.1,0.1c2.5,0.2,5.4,0.4,7.1,2.3s1.9,5.7,2,8.7c0,0.8,0.1,1.6,0.1,2.3v0.4c0.2,2,0.5,5-0.3,7.2H79
		c0.7-2.3,0.4-5.2,0.2-7.2v-0.4c-0.1-0.7-0.1-1.5-0.1-2.3c-0.1-3.1-0.3-7-2.1-9c-1.8-2-4.8-2.2-7.4-2.5c-0.4,0-0.8-0.1-1.1-0.1
		c-2.1-0.2-4.2-0.4-6.5-0.9c-10-2-19.7-5.3-28.9-9.7c-0.8-0.4-1.9-1-3.1-1.8c-3.2-1.9-7.6-4.6-11-4.6c-2.1,0-3.7,1.1-4.5,3.1
		c-1.1,2.6-0.4,4.8,2.1,7c1.8,1.5,3.9,2.6,5.9,3.6c1.4,0.7,2.9,1.5,4.2,2.4c10.4,7,23.8,14.6,38.6,21.9c0.3,0.1,0.5,0.3,0.7,0.4h1.1
		C66.8,449.7,65.7,449.2,65.7,449.2z"/>
	<path d="M97.1,249.3L97.1,249.3c-1.5,0-2.9,1.8-4,3.1c-0.2,0.3-0.4,0.5-0.6,0.7c-1,1.1-1.9,2.3-2.9,3.5c-0.6,0.7-1.2,1.5-1.8,2.2
		l-0.1,0.1c-2,2.4-2.8,3.9-2.5,4.7c0.1,0.2,0.3,0.5,0.8,0.6c0.1,0,0.2,0,0.2,0l0,0c4-0.1,7.2-3.7,8.8-5.9c1.5-2.1,2.6-4.3,2.9-6.1
		c0.1-0.4,0.3-1.9-0.2-2.6C97.7,249.4,97.4,249.3,97.1,249.3z M97.7,252.2c-0.4,1.7-1.4,3.9-2.9,5.9c-1.5,2.1-4.6,5.6-8.4,5.7v0.3
		v-0.2c-0.1,0-0.1,0-0.2,0c-0.4,0-0.4-0.2-0.4-0.2c-0.1-0.3-0.1-1.2,2.4-4.2l0.1-0.1c0.6-0.7,1.2-1.5,1.8-2.2
		c0.9-1.1,1.9-2.3,2.9-3.5c0.2-0.2,0.4-0.5,0.6-0.8c0.9-1.2,2.3-2.9,3.6-2.9l0,0c0.2,0,0.4,0.1,0.5,0.2
		C97.9,250.4,97.8,251.4,97.7,252.2z"/>
	<path d="M202.6,350.6c13.3-1.5,27.5-16.9,27.7-29.9c0.3-20-11.2-35.9-22.3-51.3c-1.9-2.6-3.8-5.3-5.7-8l-1.1-1.6
		c-5.2-7.5-11.1-16.1-13.1-25.3c-1.6-7.8-4.1-26-1.4-32.3c2-4.6,7.6-7.2,13.1-9.8c3.8-1.8,7.4-3.4,9.9-5.7l0.1-0.1
		c8.6-7.8,8.6-7.8,14.4-8c1.8-0.1,4-0.1,7.1-0.4c4.2-0.4,6.6-1,8.4-1.4c1.1-0.3,2-0.5,2.7-0.5c1.8,0,3.3,1.3,8.3,5.5
		c14.8,12.5,14.5,34.2,14.2,55.2c-0.3,26.4-0.7,53.8,29.2,62.4c4.3,1.2,8.5,1.9,12.5,1.9c11.2,0,20.8-5,27.7-14.5
		c10.1-13.9,12.8-35.7,6.7-54.2c-14.1-42.6-47.7-66.9-83.9-90.1c-32.9-21.1-64.2-26.9-90.9-30.7c-1.9-0.3-3.8-0.4-5.5-0.4
		c-10.9,0-16,5.5-22.5,12.5c-2.5,2.7-5.1,5.4-8.3,8.3c-3.7,3.2-8.4,5.4-12.9,7.6c-7.4,3.5-14.3,6.8-17.2,14.1
		c-6.1,15.5,8.9,27.7,22.1,38.4c6.1,4.9,11.9,9.6,15.3,14.3c13.5,18.5,9.4,49.8-2.8,67.3c-3.8,5.5-11.1,12.3-18.8,19.4
		c-12.8,11.9-27.3,25.3-29.9,36.7c-1.2,5.3-0.9,9,1,11.4c1.5,1.9,4.2,2.9,8,2.9c6.3,0,15.3-2.6,24.8-5.3c11.7-3.4,24.9-7.2,36.1-7.2
		c5.4,0,9.8,0.8,13.6,2.6c4.3,2,8,4.8,11.6,7.6c5.9,4.6,11.4,8.9,19.2,8.9C200.9,350.7,201.7,350.7,202.6,350.6z M169.4,333.8
		c-3.8-1.7-8.4-2.6-13.8-2.6c-11.3,0-24.6,3.8-36.3,7.2c-9.5,2.7-18.5,5.3-24.7,5.3c-3.7,0-6.1-0.9-7.6-2.7c-1.8-2.2-2-5.8-0.9-10.9
		c2.5-11.2,17-24.6,29.7-36.4c7.7-7.2,15.1-14,18.9-19.5c12.3-17.7,16.3-49.2,2.8-67.9c-3.4-4.7-9.2-9.4-15.4-14.4
		c-13.1-10.6-28-22.6-22-37.8c2.8-7.1,9.7-10.4,17-13.8c4.6-2.2,9.3-4.4,13-7.7c3.2-2.8,5.8-5.6,8.3-8.3
		c6.4-6.9,11.5-12.3,22.2-12.3c1.7,0,3.5,0.1,5.4,0.4c26.7,3.8,58,9.6,90.7,30.6c36.1,23.1,69.6,47.4,83.6,89.9
		c6,18.3,3.4,39.9-6.6,53.7c-6.8,9.4-16.2,14.3-27.3,14.3c-3.9,0-8.1-0.6-12.3-1.9c-13.3-3.8-21.6-11.7-25.6-24.1
		c-3.6-11.1-3.4-24.7-3.2-37.9c0.3-21.1,0.5-43-14.4-55.6c-7.1-6-7.3-6.1-11.4-5.1c-1.8,0.4-4.2,1-8.4,1.4c-3.1,0.3-5.3,0.4-7,0.4
		c-6,0.2-6,0.2-14.8,8.1l-0.1,0.1c-2.5,2.2-6,3.9-9.7,5.6c-5.6,2.6-11.3,5.3-13.4,10c-2.8,6.4-0.3,24.7,1.4,32.6
		c1.9,9.3,7.9,17.9,13.1,25.4l1.1,1.6c1.8,2.7,3.8,5.4,5.7,8c11.1,15.4,22.5,31.2,22.2,51c-0.2,12.8-14.2,27.9-27.2,29.4
		c-0.8,0.1-1.7,0.1-2.5,0.1c-7.7,0-13.1-4.3-18.9-8.8C177.5,338.7,173.8,335.8,169.4,333.8z"/>
	<path d="M450,2.1c-1.5-0.8-3-1.5-4.6-2.1h-0.8c1.8,0.7,3.6,1.6,5.4,2.5V2.1z"/>
	<path d="M436.4,196.6c-0.5-0.4-1.3-1.1-2.3-1.9c-3.8-3.3-10.2-8.9-14.7-8.9c-1.8,0-3.1,0.9-3.9,2.5c-1,2.1,1.2,7,2.8,10.2
		c0.4,0.8,0.7,1.5,0.9,2c0.4,1,0.8,1.9,1.1,2.8c2.1,5.6,4.3,11.3,5.9,17.5c0.2,0.7,0.3,1.4,0.5,2.2c0.7,3.3,1.7,7.5,4,9.5
		c0.9,0.8,1.8,1.3,2.6,1.6c0.4,0.1,0.8,0.2,1.1,0.2c2.7,0,4.6-3.1,6.4-6.1c0.4-0.7,0.8-1.4,1.3-2l0.4-0.6
		c6.9-10.5,11.1-16.8-1.6-25.6C439.7,199,438.1,197.8,436.4,196.6z M442.1,225.2l-0.4,0.6c-0.4,0.7-0.9,1.4-1.3,2
		c-1.7,2.9-3.5,5.8-6,5.8c-0.3,0-0.6-0.1-1-0.1c-0.8-0.2-1.6-0.7-2.4-1.5c-2.2-1.9-3.1-6-3.8-9.2c-0.2-0.8-0.3-1.5-0.5-2.2
		c-1.6-6.3-3.8-12-6-17.6c-0.3-0.8-0.7-1.8-1.1-2.8c-0.2-0.5-0.5-1.2-0.9-2c-1.4-2.9-3.7-7.9-2.8-9.8c0.8-1.5,1.9-2.3,3.5-2.3
		c4.3,0,10.6,5.5,14.3,8.7c1,0.9,1.8,1.6,2.3,1.9c1.7,1.2,3.3,2.4,4.5,3.2C452.9,208.7,448.8,214.9,442.1,225.2z"/>
	<path d="M444.6,185.4c-2.2-1.6-4.4-3.4-6.7-5.3c-7.1-5.8-15.2-12.4-22.5-12.4c-1.4,0-2.8,0.3-4.2,0.8c-12.8,4.8-11,18.4-8.7,26.1
		c1.4,4.7,3.1,9.3,4.8,13.8c2,5.2,4.1,10.6,5.5,16.1c0.9,3.3,1.3,6.8,1.7,10.2c1.3,10.3,2.5,20.1,16.3,20.1c1.1,0,2.3-0.1,3.5-0.2
		c1.6-0.2,2.9-0.4,4-0.8c3.7-1.2,4.8-3.4,6.4-6.8c0.5-1,1.1-2.2,1.8-3.4c1.1-1.9,2.3-3.7,3.5-5.5v-0.5c-1.3,1.9-2.6,3.8-3.8,5.8
		c-0.7,1.2-1.3,2.4-1.8,3.4c-1.6,3.3-2.7,5.5-6.3,6.6c-1.1,0.3-2.3,0.6-3.9,0.7c-1.2,0.1-2.4,0.2-3.5,0.2c-13.5,0-14.7-9.2-16-19.9
		c-0.4-3.4-0.9-6.9-1.7-10.2c-1.4-5.5-3.5-10.9-5.5-16.1c-1.7-4.5-3.5-9.1-4.8-13.7c-2.2-7.6-4-20.9,8.6-25.7
		c1.3-0.5,2.7-0.7,4.1-0.7c7.2,0,15.2,6.6,22.3,12.3c2.3,1.9,4.5,3.7,6.8,5.3c1.7,1.2,3.1,2.3,4.2,3.1c0.4,0.3,0.9,0.6,1.4,0.9v-0.4
		c-0.4-0.3-0.8-0.5-1.2-0.8C447.7,187.6,446.3,186.6,444.6,185.4z"/>
	<path d="M436.7,408.8c-4.4,6.8-9.6,13.4-13.6,18.4c-0.2,0.3-0.5,0.6-0.7,0.9c-1.8,2.1-4,4.7-2.5,7.4c1.5,2.6,5.9,3.1,9.1,3.4
		c0.6,0.1,1.1,0.1,1.6,0.2c6.9,1,13.4,3,19.5,5.7v-0.3c-6.1-2.7-12.6-4.7-19.4-5.7c-0.5-0.1-1-0.1-1.6-0.2c-3.1-0.4-7.4-0.9-8.9-3.3
		c-1.5-2.5,0.7-5,2.4-7c0.3-0.3,0.5-0.6,0.7-0.9c4-5,9.2-11.6,13.7-18.4c3.9-6.1,6.7-12.4,9.6-19.1c1-2.3,2.2-4.3,3.5-6v-0.5
		c-1.4,1.9-2.7,4-3.7,6.4C443.3,396.4,440.6,402.7,436.7,408.8z"/>
	<path d="M329.7,5.3c1.6,5.3,12.7,8.2,19.8,8.2c10.2,0,20.8-2,32.1-4.1C393,7.2,404.8,5,416.3,5c12.6,0,23.1,2.7,32.2,8.2
		c0.5,0.3,1,0.6,1.5,0.9v-0.6c-0.4-0.3-0.8-0.5-1.2-0.8c-9.2-5.6-19.8-8.3-32.5-8.3c-11.5,0-23.3,2.2-34.7,4.4
		c-11.3,2.1-21.9,4.1-32,4.1c-7.1,0-17.9-3-19.4-7.8c-0.5-1.6,0.1-3.3,1.7-5.1h-0.7C329.7,1.8,329.2,3.6,329.7,5.3z"/>
	<path d="M414,39.9c-1.3,0-2.6,0-3.8,0c-1.2,0-2.4,0-3.6,0c-6.8,0-12.2,0.4-18.2,2.2c-3.1,1-6.1,2.4-8.9,3.9
		c-4.7,2.4-9.2,4.7-14.6,4.7c-0.9,0-1.8-0.1-2.7-0.2c-3.9-0.6-6.9-2.9-9.8-5.1c-3.2-2.5-6.2-4.9-10.5-4.9c-0.4,0-0.8,0-1.2,0.1
		c-2.6,0.3-6.8,2.6-10.9,4.9c-2.6,1.5-5.1,2.9-6.8,3.5c-2.5,0.9-4.5,1.4-5.9,1.7c-4.2,1-4.7,1.4-6.8,9.1c-0.6,2.1-1,4.1-1.4,6.1
		c-1.5,7.2-2.6,12.8-10.3,18.3c-5.2,3.6-11.7,5.4-20,5.4c-8.2,0-16.8-1.7-24.4-3.2c-4-0.8-7.7-1.5-10.5-1.8
		c-1.6-0.2-4.1-0.3-6.7-0.3c-7.3,0-15.9,2.7-16.5,6.5c-0.3,1.8,1.1,4.6,9.6,7.3l0.9,0.3c32.1,10.3,54.4,23.7,77.2,46.3
		c6.3,6.2,11.1,9.1,15.1,9.1c0.9,0,1.9-0.2,2.7-0.5c4.3-1.6,7.4-7,11-13.2c1.9-3.2,4-6.9,6.5-10.4c12.1-17,29.4-29.5,48.8-35
		c5.7-1.6,11.3-2.5,16.6-2.5c17.3,0,29.5,8.5,41,17.2v-0.6c-11.5-8.7-23.7-17-41-17c-5.3,0-11,0.8-16.7,2.5
		c-19.5,5.6-36.9,18.1-49.1,35.2c-2.5,3.5-4.6,7.2-6.5,10.4c-3.6,6.2-6.6,11.5-10.7,13c-0.8,0.3-1.7,0.5-2.6,0.5
		c-3.9,0-8.6-2.9-14.7-9c-22.8-22.7-45.2-36.1-77.4-46.5l-0.9-0.3c-6.3-2-9.6-4.4-9.2-6.7c0.5-3.2,8.1-6.1,16-6.1
		c2.5,0,5,0.1,6.6,0.3c2.8,0.3,6.5,1,10.5,1.8c7.6,1.5,16.3,3.3,24.5,3.3c8.4,0,15.1-1.8,20.3-5.5c7.8-5.5,9-11.3,10.5-18.6
		c0.4-1.9,0.8-3.9,1.4-6c2-7.7,2.4-7.8,6.4-8.8c1.4-0.3,3.3-0.8,5.9-1.7c1.8-0.7,4.3-2.1,6.9-3.5c3.8-2.2,8.2-4.6,10.7-4.9
		c0.4,0,0.8-0.1,1.1-0.1c4.1,0,7.1,2.3,10.2,4.8c2.9,2.3,5.9,4.7,10,5.2c0.9,0.1,1.8,0.2,2.7,0.2c5.5,0,10.2-2.4,14.8-4.7
		c2.8-1.4,5.7-2.9,8.8-3.9c5.9-1.8,11.3-2.2,18.1-2.2c1.2,0,2.4,0,3.6,0c1.3,0,2.5,0,3.9,0c6.1,0,11.6,0.7,16.7,2.2
		c6.5,1.9,12.9,4.4,19.2,7.5v-0.6c-6.3-3-12.7-5.5-19.1-7.4C425.7,40.7,420.2,39.9,414,39.9z"/>
	<path d="M439.2,416.9c-3.2,3.9-6.9,8.3-6.7,12.5c0.1,3.3,3.3,3.8,6.1,4.3c0.7,0.1,1.3,0.2,1.9,0.4c2.8,0.7,6.2,1.9,9.6,3.3V437
		c-3.4-1.4-6.7-2.6-9.5-3.2c-0.6-0.1-1.2-0.3-1.9-0.4c-2.8-0.5-5.7-1-5.8-4c-0.2-4.1,3.5-8.5,6.7-12.3c1.3-1.6,2.6-3.1,3.4-4.4
		c2.9-4.4,5.1-8.9,7.2-13.4v-0.7c-2.2,4.7-4.5,9.4-7.4,14C441.7,413.9,440.5,415.4,439.2,416.9z"/>
	<path d="M444.8,194.2c-1.2-0.8-2.7-1.9-4.4-3.1c-2.4-1.7-4.6-3.6-7-5.5c-0.5-0.4-1.1-0.9-1.8-1.5c-4-3.4-9.5-8.1-14.6-8.1
		c-1.4,0-2.7,0.4-3.9,1.1c-8.8,5.4-3.5,18.4-0.3,26.1c0.4,0.9,0.7,1.8,1,2.6c2.1,5.4,4.2,11,5.7,16.8c0.3,1.1,0.6,2.4,0.9,3.8
		c1.4,6.3,3.3,14.9,8.1,18c0.8,0.5,1.6,0.8,2.5,0.9c0.3,0,0.5,0.1,0.8,0.1c5.9,0,11.7-8.9,16-15.5c0.8-1.2,1.5-2.3,2.1-3.2v-0.5
		c-0.7,1-1.5,2.2-2.4,3.5c-4.2,6.5-10.1,15.3-15.8,15.3c-0.2,0-0.5,0-0.7-0.1c-0.8-0.1-1.6-0.4-2.4-0.9c-4.7-3-6.6-11.6-8-17.8
		c-0.3-1.4-0.6-2.7-0.9-3.8c-1.5-5.9-3.7-11.5-5.7-16.9c-0.3-0.8-0.7-1.7-1-2.6c-3.1-7.7-8.3-20.5,0.2-25.8c1.1-0.7,2.4-1,3.7-1
		c5,0,10.4,4.6,14.4,8c0.6,0.5,1.2,1,1.8,1.5c2.4,2,4.7,3.8,7,5.5c1.6,1.2,3.2,2.3,4.4,3.1c1.6,1.1,3.1,2.1,4.8,3.3
		c0.2,0.1,0.3,0.2,0.5,0.3v-0.4c-0.1-0.1-0.2-0.2-0.4-0.2C448,196.3,446.4,195.2,444.8,194.2z"/>
	<path d="M392.8,265.1c0.6,0.7,1.6,1.8,4.3,2c10,0.8,25.1,2.1,37.9,13.7l0.1,0.1c4.4,4,7.9,9,10.5,15c0.7,1.6,1.9,2.6,3.2,2.6
		c0.4,0,0.7-0.1,1.1-0.2v-0.4c-0.4,0.2-0.7,0.3-1.1,0.3c-1.2,0-2.3-0.9-3-2.4c-2.6-6-6.2-11.1-10.6-15.1l-0.1-0.1
		c-12.8-11.7-28-12.9-38-13.7c-2.6-0.2-3.6-1.2-4.1-1.9c-1.3-1.7-1.4-4.2-1.3-5c1.4-6.1,3.1-13.7,2.5-22.1
		c-1.1-14.1-6.7-26.2-12.2-38c-4.4-9.4-9.3-20.1-7.6-24.9c3.1-8.7,15.6-21.1,20.9-26c3.3-3.1,7.3-4.7,11.8-4.7c2.6,0,4.8,0.5,6.2,1
		c9.2,3,22.2,9.8,36.7,19.1V164c-14.5-9.3-27.5-16.1-36.6-19c-1.4-0.5-3.7-1-6.3-1c-4.6,0-8.6,1.6-12,4.8
		c-5.3,4.9-17.8,17.4-20.9,26.1c-1.8,5,3.2,15.7,7.6,25.2c5.4,11.7,11.1,23.8,12.2,37.9c0.6,8.3-1.1,15.9-2.5,22
		C391.3,260.7,391.5,263.4,392.8,265.1z"/>
	<path d="M449.1,415.3c-1.6,2.6-3.4,5.6-3,8.9c0.4,3.2,1.9,4.6,3.9,5.6v-0.3c-1.9-1-3.2-2.3-3.6-5.3c-0.4-3.1,1.4-6.1,3-8.7l0.3-0.5
		c0.1-0.2,0.2-0.4,0.3-0.6v-0.6c-0.2,0.4-0.4,0.7-0.6,1.1L449.1,415.3z"/>
	<path d="M318.8,15.5c8.6,5.4,18.7,8.1,30.8,8.1c11.1,0,22.7-2.2,34-4.3c10.9-2.1,22.2-4.2,32.8-4.2c10.7,0,19.5,2.2,27,6.8
		c1.3,0.8,2.7,1.6,4.1,2.5c0.9,0.5,1.7,1,2.6,1.6v-0.8c-0.8-0.5-1.5-0.9-2.2-1.4c-1.4-0.9-2.8-1.7-4.1-2.5
		c-7.6-4.6-16.6-6.9-27.4-6.9c-10.6,0-21.9,2.1-32.9,4.2c-11.2,2.1-22.8,4.3-33.8,4.3c-11.9,0-21.9-2.6-30.4-7.9
		c-5.7-3.6-8.5-7.4-8.2-11.2c0.1-1.2,0.5-2.5,1.2-3.7h-0.8c-0.6,1.2-1,2.4-1.1,3.6C310,7.8,312.8,11.8,318.8,15.5z"/>
	<path d="M411.7,256.1c2.3,1.2,5.4,1.8,8.4,2.3c2.2,0.4,4.5,0.8,6.4,1.5c1.2,0.4,2.5,1.1,3.9,1.8c2.9,1.4,6.1,3,9.1,3
		c0.6,0,1.1-0.1,1.6-0.2c0.1,0,0.3-0.1,0.4-0.1c4.2-1.3,6.5-6.6,8.5-11.5V252v0.1c-2,5-4.2,10.6-8.5,11.9c-0.1,0-0.3,0.1-0.4,0.1
		c-0.5,0.1-1,0.2-1.6,0.2c-2.9,0-6.1-1.6-8.9-3c-1.4-0.7-2.7-1.3-3.9-1.8c-1.9-0.7-4.2-1.1-6.5-1.5c-3-0.5-6.1-1-8.3-2.3
		c-4.9-2.7-4.4-7.7-3.9-12.9c0.2-2.1,0.4-4.2,0.3-6.1c-1.3-16.6-7.5-29.9-13.5-42.8c-2.7-5.8-2.9-12.2-0.6-18
		c2.5-6.2,7.9-11.3,14.6-13.9c2.1-0.8,4.3-1.2,6.5-1.2c9.6,0,18.7,7.4,26.7,13.9c2.3,1.8,4.4,3.6,6.5,5.1c0.5,0.4,1,0.7,1.5,1.1
		v-0.4c-0.4-0.3-0.8-0.6-1.3-0.9c-2-1.5-4.2-3.2-6.4-5.1c-8-6.6-17.1-14-26.9-14c-2.3,0-4.5,0.4-6.6,1.2c-6.8,2.6-12.2,7.7-14.8,14
		c-2.4,5.9-2.2,12.3,0.6,18.2c6,12.8,12.1,26.1,13.4,42.7c0.1,1.9-0.1,4-0.3,6.1C407.1,248,406.6,253.3,411.7,256.1z"/>
	<path d="M414,50c-8.4,0-17.4,1.5-26.8,3.1c-10.7,1.8-21.7,3.7-33.5,3.7c-0.8,0-1.7,0-2.5,0c-4.1-0.1-7.5-0.8-10.6-1.4
		c-2.6-0.5-4.9-1-7.1-1c-5.2,0-9,2.7-13.2,9.4c-2,3.2-3.5,7.1-4.9,10.8c-2.5,6.6-5.1,13.4-10.8,17.5c-2,1.4-5.8,2.5-9.8,3.6
		c-7,2-14.9,4.3-16,9c-1.3,5.9,10.8,14,17.3,18.4c1.2,0.8,2.3,1.5,3,2c7.7,5.6,14,9.4,20,9.4c0.8,0,1.6-0.1,2.4-0.2
		c4.8-0.9,9.2-4.3,13.7-10.7c13.4-18.9,32.7-32.7,54.3-38.9c6.6-1.9,13.2-2.9,19.4-2.9c17.3,0,30,7,41,14.7v-0.4
		c-11-7.7-23.7-14.7-41-14.7c-6.3,0-12.8,1-19.5,2.9c-21.7,6.2-41,20.1-54.4,39c-4.5,6.4-8.8,9.7-13.5,10.6
		c-0.8,0.1-1.6,0.2-2.4,0.2c-5.9,0-12.2-3.7-19.8-9.3c-0.7-0.5-1.7-1.2-3-2c-6.5-4.3-18.5-12.3-17.2-18c1-4.5,8.9-6.8,15.8-8.8
		c4-1.1,7.8-2.2,9.8-3.7c5.8-4.1,8.4-11,10.9-17.6c1.4-3.7,2.9-7.6,4.9-10.8c4.1-6.6,7.9-9.3,12.9-9.3c2.2,0,4.4,0.4,7,1
		c3.1,0.6,6.5,1.3,10.6,1.4c0.8,0,1.7,0,2.5,0c11.8,0,22.8-1.9,33.5-3.7c9.5-1.6,18.4-3.1,26.8-3.1c5.2,0,9.8,0.6,14,1.8
		c7.3,2.1,14.5,5.2,22,9v-0.3c-7.4-3.7-14.6-6.8-21.9-8.9C423.9,50.6,419.3,50,414,50z"/>
	<path d="M405.2,261.4c2,0.5,4,1,6,1.4c10.5,2.4,19.5,4.5,28.5,12.7l0.2,0.2c2.1,1.9,3.7,2.8,5,2.8c0.2,0,0.4,0,0.6-0.1
		c2-0.5,2.9-3.2,4-6.7c0.2-0.5,0.3-1.1,0.5-1.6v-1c-0.3,0.8-0.6,1.7-0.8,2.5c-1,3.4-2,6.1-3.8,6.5c-1.3,0.3-3-0.6-5.3-2.7l-0.2-0.2
		c-9.1-8.2-18.2-10.3-28.6-12.8c-1.9-0.4-3.9-0.9-6-1.4c-7.3-1.8-6.1-8.7-4.9-15.4c0.5-2.9,1.1-5.9,0.9-8.4
		c-1.2-15.4-7.1-28.1-12.8-40.4c-0.7-1.5-1.4-2.9-2.1-4.3c-3.7-7.2-6.8-13.4-2.3-21.1c3.4-5.8,8.5-10.5,13.5-15
		c0.9-0.8,1.8-1.6,2.7-2.5c1.9-1.8,4.5-2.7,7.7-2.7c12.3,0,31.3,13.1,42.2,21V172c-11-7.9-29.8-20.9-42.2-20.9c-3.3,0-6,0.9-7.9,2.8
		c-0.9,0.8-1.8,1.6-2.6,2.5c-5,4.6-10.1,9.3-13.5,15.1c-4.6,7.8-1.3,14.4,2.3,21.4c0.7,1.4,1.4,2.8,2.1,4.3
		c5.7,12.3,11.6,24.9,12.8,40.3c0.2,2.5-0.3,5.5-0.9,8.4C398.9,252.5,397.6,259.5,405.2,261.4z"/>
	<path d="M194.8,405.5c-2.5,3.8-5.7,8.6-4.6,11.8c0.4,1.3,1.6,2.3,3.3,3c0.3,0.1,0.7,0.2,1.1,0.2c3.9,0,10-6,15.4-11.2
		c3.4-3.3,6.7-6.5,8.6-7.4c9.3-4.2,22.2-6.2,33.5-8c4.5-0.7,8.7-1.4,12.6-2.1c8.9-1.7,17.5-2.6,25.5-2.6c26.3,0,48.5,9.5,65.7,28.2
		c1.9,2.1,4.8,3.2,8.4,3.2c11.3,0,30.6-11,44.3-31.3c8.2-12.2,20-37.1,7.7-67c-4.9-12-12.3-17.6-23.1-17.6c-8.2,0-17.6,3-28.5,6.5
		c-13.4,4.3-28.5,9.2-44.8,9.2c-12.7,0-24.3-2.9-35.6-8.9c-34.8-18.6-35.8-52.4-32.8-79.8c1.2-10.7-0.7-19.1-5.5-24.4
		c-3.4-3.7-7.9-5.7-13.2-5.7c-10,0-22.6,7.8-27.1,22.7c-4.3,14,5.8,26.8,17.5,41.5c13.2,16.6,28.1,35.5,25.2,60.7
		c-1.4,12.5-6,24.5-12.2,32c-4.7,5.7-8.9,6.3-13.2,6.8c-3.4,0.4-6.8,0.8-10.9,3.4c-3.1,2-4.1,5.3-5.1,8.9c-0.7,2.4-1.4,5-2.9,7.1
		c-0.8,1.1-2.2,1.4-3.8,1.6c-2,0.3-4.2,0.7-5.4,3.3c-0.8,1.8,0.3,3.9,1.3,5.9c0.9,1.7,1.8,3.5,1.5,4.9
		C197.4,401.4,196.2,403.3,194.8,405.5z M196.6,395.1c-1-2-2-3.9-1.3-5.4c1.1-2.3,3.1-2.6,5-3c1.6-0.3,3.2-0.5,4.1-1.9
		c1.6-2.2,2.3-4.7,3-7.2c1-3.4,1.9-6.7,4.9-8.6c4-2.5,7.4-2.9,10.7-3.3c4.5-0.6,8.8-1.1,13.6-7c6.3-7.7,10.9-19.7,12.3-32.3
		c2.9-25.4-12.1-44.4-25.3-61.1c-11.6-14.6-21.6-27.3-17.4-41c4.4-14.6,16.7-22.3,26.5-22.3c5.1,0,9.6,1.9,12.8,5.5
		c4.6,5.2,6.5,13.5,5.3,24c-3,27.6-2,61.7,33.1,80.4c11.4,6.1,23.1,9,35.9,9c16.4,0,31.6-4.9,45-9.2c10.8-3.5,20.2-6.5,28.3-6.5
		c10.7,0,17.6,5.3,22.5,17.2c12.2,29.6,0.5,54.3-7.6,66.4c-13,19.5-32.5,31.1-43.8,31.1c-3.5,0-6.1-1-8-3
		c-17.4-18.8-39.6-28.4-66.2-28.4c-8.1,0-16.7,0.9-25.7,2.6c-3.9,0.8-8.1,1.4-12.6,2.1c-11.4,1.8-24.3,3.8-33.7,8.1
		c-2,0.9-5.2,4-8.8,7.5c-5.3,5.2-11.3,11.1-15,11.1c-0.3,0-0.6,0-0.9-0.1c-1.6-0.6-2.6-1.4-3-2.6c-1-3,2.1-7.6,4.5-11.3
		c1.5-2.2,2.7-4.1,3-5.4C198.5,398.7,197.6,396.8,196.6,395.1z"/>
	<path d="M132.7,407.1c4.5-4.1,11.7-7.7,19.9-11.8c5.8-2.9,13.5-10,13.1-15.8c-0.3-3.2-2.8-5.5-7.6-7.1c-1.9-0.6-3.9-0.9-6.3-0.9
		c-6.1,0-13,2-19.1,3.8c-2.8,0.8-5.4,1.6-7.8,2.1c-20.1,4.6-32.3,7.3-43.2,7.3c-9.6,0-18.1-2.2-29.2-7.5
		c-10.7-5.1-18.4-9.9-24.6-13.7c-9.1-5.7-13.4-8.2-18.8-8.2c-2.5,0-5.5,0.6-9.1,1.7v0.5c3.6-1.2,6.6-1.7,9.1-1.7
		c5.3,0,9.5,2.5,18.5,8.1c6.2,3.8,13.9,8.6,24.6,13.7c11.2,5.3,19.7,7.5,29.4,7.5c10.9,0,23.1-2.8,43.3-7.3c2.4-0.5,5-1.3,7.8-2.1
		c6-1.8,12.9-3.8,19-3.8c2.3,0,4.3,0.3,6.1,0.9c4.6,1.4,7,3.7,7.2,6.6c0.4,5.6-7.1,12.5-12.8,15.3c-8.3,4.2-15.5,7.7-20,11.9
		c-13.8,12.4-11.5,28.7-7.4,43.3h0.5C121.3,435.5,119.1,419.4,132.7,407.1z"/>
	<path d="M436.4,337.2c1.3,0.8,3.4,1.3,5.9,1.3c2.2,0,4.9-0.4,7.7-1.2v-0.7c-2.8,0.9-5.5,1.3-7.7,1.3c-2.3,0-4.3-0.4-5.5-1.2
		c-5.9-3.8-8.5-10.4-11.2-17.4c-2.4-6.1-4.8-12.3-9.6-16.7v-0.2h-0.2c-5.5-4.8-12.9-7.2-22.6-7.2c-9.5,0-19.4,2.3-27.4,4.1
		c-5.5,1.2-10.2,2.3-13.2,2.3c-1.8,0-2.9-0.4-3.3-1.1c-0.6-1-0.1-2.9,1.3-5.6c6.9-12.6,20.9-42.7,19.9-55.1c-0.8-9.8-5.5-20-10-29.8
		c-6.6-14.3-13.5-29-8.5-43c5.7-16,30.7-44.6,48.5-47.1c1-0.1,2.2-0.2,3.3-0.2c11.6,0,28.5,6.9,46.2,16.9v-0.7
		c-17.7-10-34.6-16.8-46.2-16.8c-1.2,0-2.4,0.1-3.4,0.2c-18,2.5-43.3,31.4-49.1,47.5c-5.1,14.3,1.8,29.1,8.5,43.5
		c4.5,9.8,9.2,19.8,10,29.5c0.9,11.1-11.3,39.2-19.8,54.8c-1.7,3-2.1,5-1.3,6.3c0.6,1,1.9,1.5,3.9,1.5c3.1,0,7.9-1.1,13.4-2.3
		c8-1.8,17.9-4.1,27.2-4.1c9.6,0,16.8,2.3,22.2,7.1l0,0c4.7,4.3,7.2,10.5,9.5,16.6C427.7,326.6,430.4,333.3,436.4,337.2z"/>
	<path d="M430.6,382.9c-2.6,6-5.1,11.7-8.3,16.6c-18.4,28.7-39,33.5-60.7,38.6c-1.7,0.4-3.4,0.8-5.1,1.1c-7.2,1.5-14.7,3.1-20.8,7.1
		c-1.9,1.2-3.4,2.5-4.4,3.7h0.7c1-1.1,2.3-2.1,4-3.2c6-3.9,13.5-5.5,20.7-7c1.7-0.4,3.4-0.7,5.1-1.1c21.9-5.1,42.5-10,61-38.8
		c3.2-5,5.7-10.7,8.3-16.7c4.2-9.6,9-20.5,15.6-24.1c1.2-0.4,2.3-0.8,3.3-1.2v-0.5c-1.1,0.4-2.3,0.8-3.6,1.2
		C439.7,362.2,434.9,373.2,430.6,382.9z"/>
	<path d="M326.6,439.2c11.8-5.3,22.5-7.8,32.8-10.2c20.7-4.9,38.6-9.1,55-34.5c2.8-4.3,5.1-9.7,7.6-15.3
		c5.2-11.9,10.6-24.1,20.6-29.2c2.7-1,5.1-1.8,7.4-2.5v-0.7c-2.4,0.6-4.9,1.5-7.8,2.5c-10.2,5.2-15.6,17.5-20.9,29.5
		c-2.5,5.6-4.8,11-7.5,15.2c-16.2,25.2-34,29.4-54.6,34.2c-10.3,2.4-21,4.9-32.9,10.2c-7.7,3.4-12.9,7.4-15,11.5h0.8
		C314.3,446.2,319.3,442.4,326.6,439.2z"/>
	<path d="M329,415.2c-1.9-5.9-10-10.2-24.1-13c-9.3-1.8-18.8-2.7-28.3-2.7c-13.9,0-28,2-41.9,5.9c-1.9,0.5-3.8,1.1-5.6,1.7
		c-23.9,7.9-37.7,21.2-43.9,42.9h0.7c6.2-21.4,19.8-34.4,43.4-42.2c1.8-0.6,3.7-1.2,5.6-1.7c13.8-3.9,27.8-5.9,41.7-5.9
		c9.4,0,18.9,0.9,28.2,2.7c13.9,2.7,21.8,6.9,23.6,12.5c1.4,4.3-0.9,9.5-6.7,15.6c-6,6.2-12,12.5-17.5,19h0.9
		c5.3-6.3,11.2-12.4,17.1-18.5C328.1,425.3,330.4,419.8,329,415.2z"/>
	<path d="M273.5,359.6c0.4,0.2,0.9,0.3,1.3,0.3c1.8,0,3.5-1.7,5.1-3.3c0.9-0.9,1.7-1.7,2.4-2.1c0.9-0.4,1.7-0.6,2.6-0.6
		c1.6,0,2.9,0.8,4.5,1.6c0.6,0.3,1.1,0.6,1.8,0.9c1.5,0.7,3,1.1,4.5,1.1s2.9-0.3,4.4-0.7c1.5-0.4,3.1-0.8,5-0.8h0.2
		c3.8,0,7.3,2,10.6,3.9c3.3,1.9,6.8,3.9,10.6,3.9c1.8,0,3.5-0.4,5.3-1.3c1.4-0.7,2.5-1.6,3.4-2.4c1.6-1.3,2.9-2.4,5.2-2.4
		c0.7,0,1.4,0.1,2.2,0.3c6.4,1.5,9.2,7.4,12,13.1c1.3,2.7,2.6,5.4,4.3,7.6c3.3,4.4,7.7,6.9,12.2,6.9h0.2c4.5-0.1,8.8-2.6,12.2-7
		c4.5-6,12.8-25.6,9.4-35.3c-1-2.9-3-4.7-5.8-5.4c-1-0.3-1.9-0.4-2.8-0.4c-2.9,0-5.1,1.3-7.6,2.8c-0.6,0.3-1.2,0.7-1.8,1
		c-5.1,2.9-10.2,3.5-15.6,4.1c-2.1,0.2-4.3,0.5-6.5,0.9c-2.5,0.5-4.7,1.3-6.8,2.1c-2.8,1.1-5.5,2.1-8.4,2.1c-2,0-3.9-0.5-5.9-1.5
		c-4.1-2-8.6-3.9-13.6-3.9c-1.6,0-3.3,0.2-4.9,0.6c-0.8,0.2-1.5,0.4-2.2,0.6c-2.9,0.7-5.6,1.4-8.3,1.4c-2.2,0-4.3-0.5-6.4-1.4
		l-0.9-0.4c-3.8-1.7-7.7-3.6-11.7-3.6c-2.2,0-4.2,0.5-6.2,1.6c-2.5,1.4-5.9,7.2-5.8,11.3C271.4,357.4,272.1,358.8,273.5,359.6z
		 M277.5,344.6c1.9-1.1,3.9-1.6,6-1.6c3.9,0,7.7,1.8,11.5,3.5l0.9,0.4c2.1,1,4.3,1.5,6.6,1.5c2.8,0,5.6-0.7,8.5-1.4
		c0.7-0.2,1.5-0.4,2.2-0.6c1.6-0.4,3.2-0.6,4.8-0.6c4.9,0,9.3,1.9,13.4,3.8c2.1,1,4.1,1.5,6.1,1.5c3,0,5.7-1,8.6-2.2
		c2.1-0.8,4.3-1.7,6.7-2.1c2.2-0.4,4.4-0.7,6.5-0.9c5.4-0.6,10.6-1.2,15.8-4.2c0.6-0.4,1.2-0.7,1.8-1c2.5-1.5,4.6-2.7,7.4-2.7
		c0.9,0,1.7,0.1,2.7,0.4c2.7,0.7,4.5,2.4,5.4,5.1c3.4,9.6-4.8,28.9-9.3,34.9c-3.3,4.3-7.5,6.7-11.8,6.8h-0.2
		c-4.3,0-8.5-2.4-11.8-6.7c-1.6-2.2-2.9-4.8-4.2-7.6c-2.8-5.8-5.7-11.8-12.3-13.4c-0.8-0.2-1.6-0.3-2.3-0.3c-2.4,0-3.8,1.2-5.5,2.5
		c-1,0.8-2,1.6-3.3,2.3c-1.7,0.9-3.4,1.3-5.1,1.3c-3.6,0-6.9-1.8-10.3-3.8c-3.4-1.9-7-3.9-10.9-3.9h-0.2c-1.9,0-3.6,0.4-5.1,0.8
		s-2.8,0.7-4.3,0.7s-2.8-0.3-4.2-1c-0.6-0.3-1.2-0.6-1.7-0.9c-1.6-0.9-3-1.7-4.7-1.7c-0.9,0-1.8,0.2-2.8,0.7
		c-0.8,0.4-1.6,1.2-2.6,2.2c-1.5,1.5-3.1,3.1-4.7,3.1c-0.4,0-0.7-0.1-1.1-0.3c-1.2-0.7-1.9-1.9-1.9-3.7
		C271.9,351.4,275.3,345.8,277.5,344.6z"/>
	<path d="M209,395c0.6,0.2,1.8,0.3,3.2,0.3c3,0,14.3-0.5,31.9-6.3c14.7-4.9,31.9-7.5,48.5-7.5c27.2,0,45.3,4.1,68.6,26.4
		c1.7,1.6,3.9,2.4,6.6,2.4c10.1,0,25.4-11,34.9-25.1c7.4-11,18.1-33.4,7-60.3c-4.8-11.5-10.7-13.1-16.5-13.1c-7.1,0-16,2.9-26.3,6.2
		c-13.9,4.5-29.6,9.5-47,9.5c-13.9,0-26.6-3.2-39-9.8c-39-20.8-39.5-59.6-36.5-86.9c0.9-8.5-0.4-15.2-3.7-18.9
		c-2-2.2-4.7-3.4-7.9-3.4c-7.4,0-16.7,6.1-20.3,17.6c-3.2,10.5,5.8,21.8,16.3,35c13.3,16.8,29.9,37.8,26.7,65.9
		c-0.9,8-3.1,15.7-6.4,22.7c-5.3,11.2-12.2,20.7-20.7,28.3c-5.6,5-11.2,8.5-15.3,11c-3.7,2.3-6,3.7-5.8,4.8
		C207.4,394.3,207.9,394.7,209,395z M213.3,389.3c4.1-2.5,9.7-6,15.3-11c8.5-7.6,15.5-17.1,20.8-28.4c3.3-7.1,5.5-14.8,6.4-22.8
		c3.2-28.2-13.4-49.2-26.8-66.1c-10.4-13.1-19.3-24.4-16.2-34.7c3.5-11.4,12.7-17.4,20-17.4c3.2,0,5.8,1.1,7.7,3.3
		c3.3,3.6,4.5,10.2,3.6,18.6c-3,27.4-2.5,66.3,36.7,87.2c12.4,6.6,25.2,9.8,39.1,9.8c17.5,0,33.2-5.1,47.1-9.6
		c10.3-3.3,19.1-6.2,26.2-6.2c5.6,0,11.5,1.6,16.2,13c11,26.7,0.3,49-7,60c-9.2,13.8-24.7,25-34.6,25c-2.6,0-4.8-0.8-6.4-2.3
		c-11.3-10.8-21.8-17.7-33.1-21.6c-9.7-3.4-20.4-4.8-35.7-4.8c-16.6,0-33.8,2.7-48.6,7.6c-17.6,5.8-28.8,6.3-31.8,6.3
		c-1.4,0-2.6-0.1-3.2-0.2c-0.9-0.2-1.4-0.5-1.5-0.9C207.5,392.9,209.9,391.4,213.3,389.3z"/>
	<path d="M232.8,215.4c-5.4,0-11.3,5.4-13.2,10.3c-1.3,3.2-0.3,8.7,2.6,14.8c2.7,5.7,6.4,10,9.1,10.8c0.4,0.1,0.8,0.2,1.2,0.2
		c0.5,0,0.9-0.1,1.3-0.2c3.5-1.2,3.4-3.3,3.2-8c-0.1-2.9-0.3-6.8,0.3-12.2c0.8-7.3-0.3-12.8-1.9-14.5
		C235.1,215.9,234.4,215.4,232.8,215.4z M237,230.9c-0.6,5.5-0.5,9.4-0.3,12.3c0.2,4.7,0.2,6.4-2.9,7.5c-0.7,0.3-1.5,0.3-2.3,0
		c-2.6-0.8-6.1-5-8.8-10.6c-2.9-5.9-3.8-11.3-2.6-14.4c1.9-4.7,7.6-10,12.7-10c1.4,0,2,0.4,2.4,0.9
		C236.7,218.4,237.7,223.8,237,230.9z"/>
	<path d="M353.8,360.3c1.1,0.4,1.7,0.8,2.5,1.2c0.3,0.2,0.7,0.4,1.1,0.6c4.1,2.2,7.6,4.5,10,6.5c1.4,1.2,2.5,1.7,3.4,1.7
		c1.4,0,2.2-1.2,2.8-2.3c2.4-4.1,3.3-7.3,4.3-12.9c0.1-0.7,0.1-1.6-0.4-2.3c-0.7-0.9-2.2-1-4.3-0.4c-6.3,1.8-10.6,2.6-16,3.6
		c-0.9,0.2-1.9,0.4-2.9,0.6s-1.8,0.9-1.9,1.8C352.3,358.8,352.4,359.7,353.8,360.3z M354.4,357.2c1-0.2,2-0.4,2.9-0.6
		c5.4-1,9.7-1.8,16.1-3.6c0.8-0.2,1.5-0.3,2-0.3c0.8,0,1.3,0.2,1.6,0.6c0.4,0.5,0.4,1.3,0.3,1.8c-1,5.5-1.8,8.6-4.2,12.7
		c-0.7,1.2-1.4,2-2.3,2c-0.8,0-1.8-0.5-3.1-1.6c-2.4-2.1-5.9-4.3-10.1-6.6c-0.4-0.2-0.7-0.4-1.1-0.6c-0.8-0.5-1.5-0.8-2.6-1.3
		c-0.8-0.3-1.2-0.8-1.1-1.3C353,357.9,353.6,357.3,354.4,357.2z"/>
	<path d="M262,370.8c0.9,0,2.1-0.1,3.5-0.2c0.6-0.1,15.1-1.7,30.7-1.7c6.1,0,11.5,0.3,16.1,0.7c23,2.5,42.9,13.4,52.4,23.2
		c1.8,1.8,3.8,2.7,6.2,2.7c5.3,0,11.9-4.6,18-12.7c10.7-14.2,14-41.3,8.6-51.9c-1.4-2.8-3.4-4.3-5.7-4.3c-0.2,0-0.4,0-0.6,0
		c-4.2,0.4-10,2.1-17.4,4.3c-13.8,4.1-32.8,9.6-53.3,9.9c-17.5,0.3-37.6-6.7-44.4-10c-2.2-1.1-3.7-1.6-4.7-1.6c-2,0-2.1,1.9-2.3,5.1
		c-0.1,2.5-0.3,6-1.5,10c-2.3,7.2-4.8,12.7-6.7,16.7c-2.1,4.4-3.3,7.1-2.4,8.5C259,370.5,260.1,370.8,262,370.8z M261.2,361.3
		c1.9-4,4.4-9.5,6.7-16.8c1.3-4,1.4-7.5,1.5-10.1c0.1-3.1,0.2-4.9,2-4.9c0.9,0,2.4,0.5,4.5,1.5c6.7,3.3,26.2,10,43.5,10
		c0.3,0,0.7,0,1,0c20.6-0.3,39.5-5.9,53.4-10c7.4-2.2,13.2-3.9,17.4-4.3c2.5-0.3,4.5,1.1,6,4.1c5.3,10.6,2,37.5-8.6,51.6
		c-6.1,8-12.5,12.6-17.8,12.6c-2.3,0-4.3-0.9-6-2.6c-9.6-9.8-29.5-20.8-52.6-23.3c-4.6-0.5-10-0.7-16.1-0.7
		c-15.6,0-30.1,1.6-30.7,1.7c-1.4,0.2-2.5,0.2-3.4,0.2c-1.8,0-2.8-0.3-3.3-1C257.9,368.3,259.2,365.7,261.2,361.3z"/>
	<path d="M239.6,382.3c0.9,0,2.1-0.2,3.4-0.7c14-4.9,30.2-7.2,49.6-7.2c24.2,0,48.1,2.2,75.3,29c0.8,0.8,1.8,1.2,3.1,1.2l0,0
		c7.6,0,21.7-14.6,25.8-23.4c0.4-0.8,0.8-1.6,1.2-2.5c5.3-10.9,14.2-29.1,5.1-51.1c-3.6-8.8-7-8.8-10-8.8c-6,0-14.4,2.7-24.1,5.8
		c-14.4,4.6-30.6,9.9-49.1,9.9c-15.8,0-28.7-2.9-41.6-9.4c-2-1-3.9-2.1-5.6-3.1c-3.4-2-6.1-3.5-7.8-3.5c-1.3,0-2,0.9-2,2.9
		c0,0.3,0,0.8,0.1,1.5c1.8,19-5.5,36.7-21.8,52.7c-2.9,2.8-4.1,4.8-3.6,6C237.8,382,238.5,382.3,239.6,382.3z M241.4,375.6
		c10.5-10.3,17.4-21.4,20.5-33.1c2.5-9.4,1.8-16.7,1.5-19.8c-0.1-0.7-0.1-1.2-0.1-1.5c0-2.3,1-2.6,1.7-2.6c1.6,0,4.4,1.6,7.7,3.5
		c1.7,1,3.6,2.1,5.6,3.1c13,6.6,25.8,9.5,41.7,9.5c18.6,0,34.9-5.3,49.2-9.9c9.7-3.1,18.1-5.8,24-5.8c2.9,0,6.2,0,9.7,8.6
		c9,21.9,0.2,40.1-5.1,50.9c-0.4,0.9-0.9,1.7-1.2,2.5c-4.1,8.7-18.1,23.2-25.6,23.2c-1.2,0-2.1-0.4-2.8-1.1
		c-12.6-12.4-25.7-20.6-40-24.9c-12.7-3.8-24.5-4.2-35.5-4.2c-19.4,0-35.7,2.4-49.7,7.2c-1.2,0.4-2.4,0.7-3.3,0.7
		c-0.7,0-1.5-0.1-1.8-0.8C237.6,380.6,237.7,379.1,241.4,375.6z"/>
	<path d="M185.9,0h-0.7c-1.5,5.4-2.6,11.3-3.3,17.8c-1.1,11.3-2.1,26,0.2,40.3c1.7,10.4,5.1,15,11,15l0,0c3.8,0,8.1-1.8,13.2-3.9
		c3.5-1.5,7.2-3,11-4.1c0.4-0.1,0.7-0.2,1.1-0.3c11.1-3,23.6-3.4,36.8-1.2c3.6,0.6,7.2,1.6,10.6,2.5c5.1,1.4,10.3,2.9,15.7,3.1
		c2.9,0.1,4.9-0.2,6.4-0.9c4.3-2.1,2.2-7.4,0-13c-1.3-3.3-2.6-6.7-2.9-9.8c-1.2-16.3,7.9-31.2,20-45.4h-0.9
		c-12,14.2-20.9,29.1-19.8,45.4c0.2,3.2,1.6,6.7,2.9,10c2.2,5.5,4,10.3,0.3,12.1c-1.3,0.7-3.3,0.9-6.1,0.8
		c-5.3-0.2-10.5-1.7-15.5-3.1c-3.5-1-7.1-2-10.7-2.5c-13.3-2.2-25.9-1.7-37.1,1.3c-0.4,0.1-0.8,0.2-1.1,0.3
		c-3.9,1.1-7.6,2.6-11.1,4.1c-5,2.1-9.3,3.9-12.9,3.9c-5.5,0-8.6-4.4-10.3-14.4c-2.3-14.2-1.3-28.9-0.2-40.1
		C183.2,11.3,184.3,5.4,185.9,0z"/>
	<path d="M176.9,279.8c-0.7-0.6-1.3-0.9-1.8-0.9c-1.4,0-2.4,1.8-3.9,4.5c-1.5,2.8-3.6,6.6-7.3,10.5l-1.1,1.1
		c-4.2,4.4-6.1,6.4-5.6,7.5c0.2,0.5,0.9,0.7,2.1,0.7c1,0,2.6-0.2,5.2-0.5c1.1-0.1,2.1-0.2,3.2-0.2c8.7,0,15.9,4.9,21.2,8.4
		c3.1,2.1,5.5,3.7,7.3,3.7c0.7,0,1.3-0.3,1.8-0.9C203.5,306.7,184.1,286.4,176.9,279.8z M197.6,313.5c-0.4,0.5-0.8,0.7-1.4,0.7
		c-1.6,0-4-1.6-7-3.6c-5.3-3.6-12.6-8.5-21.5-8.5c-1.1,0-2.2,0.1-3.3,0.2c-2.5,0.4-4.1,0.5-5.1,0.5s-1.5-0.1-1.6-0.4
		c-0.3-0.8,2-3.2,5.5-7l1.1-1.1c3.7-3.9,5.8-7.8,7.4-10.6c1.4-2.5,2.3-4.2,3.4-4.2c0.4,0,0.9,0.3,1.5,0.8
		C185.5,288.3,202.5,307.2,197.6,313.5z"/>
	<path d="M177.1,288.2c-3.5,0-8,5.5-8,8.1c0,1.1,0.7,1.7,1.8,1.7c5.2,0.1,10.6,3.4,14.6,5.7c2.4,1.4,4.1,2.4,5.1,2.4l0,0
		c0.3,0,0.6-0.1,0.8-0.3c0.2-0.2,0.3-0.6,0.3-1.2c-0.4-4.8-9.5-14.4-13.2-16.3C178,288.3,177.5,288.2,177.1,288.2z M190.9,304.8
		c0,0.4,0,0.6-0.1,0.6c0,0-0.1,0.1-0.2,0.1l0,0c-0.8,0-2.6-1.1-4.7-2.3c-4-2.4-9.6-5.8-14.9-5.8c-0.8,0-1.1-0.3-1.1-1
		c0-2.3,4.2-7.4,7.3-7.4c0.4,0,0.7,0.1,1,0.2C182,291.1,190.5,300.5,190.9,304.8z"/>
	<path d="M164.7,197.5L164.7,197.5c0.9,0,1.5-1.2,2.2-3.9c2.5-10.2,10.8-23.7,23.7-30.9c13-7.3,21.7-9.2,26.4-10.2
		c2.3-0.5,3.5-0.8,3.8-1.4c0.1-0.2,0.1-0.5-0.1-0.8c-0.9-1.6-17-10.7-40.3-12.5l-1-0.1c-2.1-0.2-3.9-0.3-5.6-0.3
		c-6.1,0-10.9,1.7-22.3,11.3c-1.8,1.5-3.6,2.9-5.4,4.3c-5.5,4.2-10.3,7.9-10,12c0.2,3.2,3.4,6.3,9.9,9.9c7.2,4,11.6,11.9,14.5,17.1
		C162.3,195.3,163.5,197.5,164.7,197.5z M146.1,174.6c-6.3-3.5-9.5-6.7-9.8-9.7c-0.3-4,4.4-7.6,9.8-11.8c1.8-1.4,3.6-2.8,5.4-4.3
		c11.3-9.6,16.2-11.3,22.1-11.3c1.7,0,3.5,0.1,5.6,0.3l1,0.1c22.7,1.8,39.2,10.8,40,12.4c0.2,0.3,0.1,0.5,0.1,0.6
		c-0.2,0.5-1.5,0.7-3.5,1.2c-4.7,1-13.4,2.9-26.5,10.2c-13,7.2-21.3,20.8-23.8,31.1c-0.6,2.5-1.2,3.7-1.9,3.7l0,0
		c-1,0-2.3-2.4-4-5.3C157.8,186.6,153.4,178.6,146.1,174.6z"/>
	<path d="M166.6,214.7c0.9,0,1.5-1,1.9-3.3c2.6-13.8,8.2-33.3,27-43.7c5.8-3.2,12.4-5.8,20.1-7.8c1.5-0.4,3.2-1.5,4.8-2.6
		c2.1-1.4,4.2-2.8,6.2-2.8c0.2,0,0.5,0,0.7,0.1c1.1,0.2,1.9,0.8,2.7,1.5c0.9,0.7,1.8,1.4,2.9,1.4c0.4,0,0.9-0.1,1.4-0.3
		c0.8-0.3,1.3-1,1.7-1.6c0.6-0.9,1.2-1.7,2.9-1.6c1.7,0.1,2.6,1.4,3.6,2.8c0.7,1,1.4,1.9,2.4,2.5c0.7,0.4,2,0.8,3.2,0.8
		c0.8,0,1.4-0.2,1.7-0.6c0.3-0.4,0.4-1,0.2-1.7c-0.7-2.4-5.7-4.6-9.1-6c-1-0.4-1.8-0.8-2.4-1.1c-5-2.6-9.9-4.9-14.2-6.7
		c-17.7-7.8-33.9-12.5-49.4-14.5c-1.7-0.2-3.3-0.3-4.6-0.3c-7.6,0-13.6,3.3-25.3,14.3c-2.9,2.7-5.9,5-8.7,7.2
		c-6.4,5-11.5,9-11.4,13.9c0.1,3.9,3.5,8.1,10.7,13.2c11.6,8.1,19.3,20.5,24.4,28.7C163,211.3,165.1,214.7,166.6,214.7z
		 M135.6,177.4c-7.1-5-10.5-9.1-10.6-12.9c-0.1-4.8,4.9-8.7,11.3-13.7c2.9-2.2,5.9-4.6,8.8-7.2c11.7-10.9,17.6-14.2,25.1-14.2
		c1.4,0,2.9,0.1,4.6,0.3c15.5,2,31.6,6.7,49.3,14.4c4.2,1.8,9.2,4.1,14.1,6.7c0.6,0.3,1.4,0.7,2.4,1.1c3.3,1.4,8.3,3.6,8.9,5.8
		c0.2,0.6,0.1,1.1-0.1,1.4c-0.3,0.4-1,0.5-1.4,0.5c-1,0-2.3-0.4-3-0.8c-0.9-0.5-1.6-1.5-2.3-2.4c-1-1.4-2-2.8-3.8-2.9
		c-1.9-0.2-2.5,0.8-3.1,1.7c-0.4,0.6-0.8,1.2-1.6,1.5c-0.5,0.2-0.9,0.3-1.3,0.3c-1.1,0-1.9-0.6-2.7-1.3c-0.8-0.6-1.7-1.3-2.9-1.5
		c-0.2,0-0.5-0.1-0.7-0.1c-2.1,0-4.3,1.5-6.4,2.9c-1.7,1.1-3.2,2.2-4.7,2.6c-7.7,2-14.3,4.6-20.1,7.8
		c-18.9,10.5-24.6,30.1-27.2,43.9c-0.4,2-0.9,3-1.6,3c-1.3,0-3.5-3.4-6.5-8.2C155,197.9,147.2,185.6,135.6,177.4z"/>
	<path d="M203.5,340.1c6.8-0.8,13.3-5.5,16.4-12c2.9-5.9,4.4-16-4.5-30.2c-3.8-6.1-8-12.3-12-18.3c-11.5-17.1-22.4-33.2-26.8-49.4
		c-5.1-18.3-1-33.4,12.8-47.5c12-12.2,27.8-19.2,43.4-19.2c11.7,0,22.2,4.1,29.5,11.6c8,8.2,12,20.3,11.5,34.8
		c-0.1,3.4-0.3,6.9-0.4,10.6c-0.6,13.1-1.3,28,0.8,40.4c2.4,14.2,8.2,23,17.7,26.9c5.1,2.1,9.9,3.1,14.3,3.1c8,0,14.8-3.5,19.7-10.1
		c8.3-11.2,10.3-30.5,5-47.9c-11.5-37.4-39-59.7-79.8-83.6c-31-18.1-57.1-23.8-80.8-27.1c-1.8-0.2-3.4-0.4-5-0.4
		c-9.9,0-14.6,5-20.5,11.4c-2.3,2.4-4.6,5-7.6,7.6c-3.4,3-6.3,4.8-8.9,6.4c-4.2,2.6-7.8,4.8-11.7,10.7c-7.9,11.8,2.7,19,13.8,26.6
		c5.9,4,12,8.2,15.2,13.1c20.5,31,12.2,64.1-2.3,84.8c-4.2,5.9-10.2,11.5-16.7,17.4c-7.9,7.2-16,14.7-20.7,23c-2,3.6-2.6,6-1.7,7.4
		c0.6,1,2,1.5,4.1,1.5l0,0c3.8,0,9.9-1.6,17-3.4c9.9-2.6,22.2-5.8,33.1-5.8c5.8,0,10.7,0.9,14.7,2.7c4,1.8,7.3,4.4,10.6,6.9
		c5.3,4.2,10.4,8.1,17.5,8.1C202,340.3,202.7,340.2,203.5,340.1z M173.2,325c-4.1-1.9-8.9-2.8-14.8-2.8c-10.9,0-23.3,3.2-33.2,5.8
		c-7,1.8-13.1,3.4-16.9,3.4l0,0c-2,0-3.3-0.5-3.9-1.4c-0.8-1.3-0.2-3.7,1.7-7.1c4.6-8.3,12.8-15.7,20.6-22.9
		c6.4-5.9,12.5-11.5,16.7-17.4c8.5-12.1,13.6-25.9,14.6-39.9c1.1-16-3-31.2-12.2-45.2c-3.3-5-9.4-9.2-15.3-13.2
		c-11-7.5-21.4-14.7-13.7-26.2c3.9-5.9,7.5-8.1,11.6-10.6c2.6-1.6,5.6-3.4,9-6.4c2.9-2.6,5.3-5.1,7.6-7.6
		c5.9-6.3,10.6-11.3,20.3-11.3c1.5,0,3.2,0.1,4.9,0.4c23.6,3.3,49.7,8.9,80.7,27.1c40.7,23.9,68.2,46.1,79.7,83.4
		c5.3,17.3,3.3,36.5-4.9,47.7c-4.8,6.5-11.6,10-19.5,10c-4.4,0-9.1-1-14.2-3.1c-9.4-3.8-15.1-12.5-17.5-26.7
		c-2.1-12.4-1.4-27.2-0.8-40.4c0.2-3.7,0.3-7.2,0.4-10.6c0.4-14.6-3.6-26.8-11.6-35.1c-7.3-7.6-17.9-11.7-29.7-11.7
		c-15.7,0-31.6,7-43.6,19.3c-7.3,7.5-11.9,15.2-13.9,23.6c-1.8,7.5-1.5,15.4,1,24.1c4.5,16.2,15.4,32.4,26.9,49.5
		c4,6,8.2,12.1,12,18.3c8.8,14.1,7.3,24.1,4.5,29.9c-3.1,6.4-9.4,11-16.2,11.8c-0.8,0.1-1.5,0.1-2.3,0.1c-7,0-12-3.9-17.3-8
		C180.6,329.4,177.2,326.8,173.2,325z"/>
	<path d="M210.1,327.7c2.6-1.9,4.2-4.6,4.6-7.9c1.2-9.8-7.5-24.2-15.4-33.5c-9.8-11.6-19.5-24-24.2-36c-0.2-0.6-0.6-2.3-1-4.4
		c-1.5-7.1-4.1-19-7.8-19c-0.3,0-0.7,0.1-1,0.3c-1.5,0.9-2,2.7-1.4,5.5c0.5,2.3,1.6,4.9,2.6,7.2c1.1,2.4,2,4.6,2,5.8
		c0,3.1-1.5,4.4-2.9,5.8c-1.1,1-2.2,2.1-2.6,3.9c-0.5,2.4,0.5,4.2,1.4,5.9c0.9,1.6,1.8,3.2,1.5,5.4c-0.5,3.9-12.9,18-23.8,30.4
		c-9,10.3-16.8,19.2-16.7,20.9c0,0.1,0.1,0.2,0.1,0.3c0.7,0.6,2.1,0.9,4.2,0.9l0,0c3.2,0,7.7-0.7,12.9-1.6c6.3-1,13.5-2.2,19.7-2.2
		c4.8,0,8.5,0.7,11.1,2.1c1.4,0.8,3,1.7,4.7,2.7c7.5,4.3,16.7,9.7,24.6,9.7C205.5,330,208,329.2,210.1,327.7z M173.4,317.3
		c-2.7-1.4-6.3-2.1-11.2-2.1c-6.2,0-13.4,1.1-19.7,2.2c-5.2,0.8-9.7,1.6-12.9,1.6l0,0c-2,0-3.3-0.3-4-0.9c0,0,0,0,0-0.1
		c-0.1-1.6,8-10.8,16.6-20.7c10.9-12.5,23.4-26.6,23.9-30.6c0.3-2.2-0.6-3.9-1.5-5.6c-1-1.8-1.9-3.4-1.4-5.7
		c0.4-1.8,1.4-2.7,2.5-3.8c1.4-1.4,2.9-2.8,3-6c0-1.3-0.9-3.4-2-5.9c-1-2.3-2.1-4.9-2.6-7.1c-0.6-2.6-0.2-4.3,1.2-5.2
		c0.3-0.2,0.6-0.3,0.9-0.3c3.5,0,6.1,12.2,7.5,18.8c0.5,2.2,0.8,3.8,1.1,4.4c4.8,12,14.5,24.4,24.3,36c7.8,9.2,16.5,23.5,15.3,33.2
		c-0.4,3.3-1.9,5.9-4.4,7.7c-2,1.5-4.5,2.2-7.4,2.2c-7.8,0-17-5.4-24.4-9.7C176.4,319,174.8,318.1,173.4,317.3z"/>
	<path d="M206.6,315.2c0.9-8.2-7.9-21.2-12.3-26.1c-7.6-8.6-12.9-15.9-16.4-20.7c-3.5-4.8-5.4-7.4-6.6-7.4c-0.9,0-1.3,1.1-1.6,3.8
		c-2.2,20.4-15.4,31.4-23.2,38c-3.4,2.9-5.7,4.8-5.8,6.4c0,0.5,0.1,0.9,0.5,1.2c0.7,0.8,1.9,1.1,3.6,1.1c1.9,0,4.4-0.5,7.2-1
		c3.7-0.7,7.9-1.4,12.1-1.4c5.8,0,10.5,1.5,14.4,4.4c5.4,4.2,13.4,8.7,19.7,8.7l0,0c2.3,0,4.2-0.6,5.8-1.7
		C205.4,319.2,206.4,317.4,206.6,315.2z M198,321.8L198,321.8c-6.2,0-14.1-4.5-19.5-8.6c-3.9-3-8.7-4.5-14.5-4.5
		c-4.3,0-8.5,0.8-12.2,1.4c-2.8,0.5-5.3,1-7.2,1c-1.6,0-2.7-0.3-3.4-1c-0.3-0.3-0.4-0.6-0.4-1c0.1-1.4,2.4-3.4,5.7-6.2
		c7.9-6.6,21.1-17.7,23.3-38.2c0.3-2.4,0.7-3.5,1.3-3.5c1.1,0,3.1,2.8,6.4,7.3c3.5,4.8,8.8,12.2,16.4,20.7
		c4.4,4.9,13.2,17.8,12.3,25.9c-0.2,2.2-1.2,3.9-2.7,5C202.1,321.2,200.2,321.8,198,321.8z"/>
	<path d="M292.1,232.9c-1,15.6,3.5,26.4,8,31.3c2.1,2.2,4.4,3.4,6.4,3.4l0,0c2.9,0,5.1-2.3,6.2-6.4c6.8-26.8-16.4-55-19.3-57.4
		c-0.8-0.7-1.4-0.8-1.8-0.4c-0.7,0.7-0.5,3.1-0.1,7.5C292,216,292.7,223.8,292.1,232.9z M292,203.8c0.1-0.1,0.1-0.1,0.2-0.1
		s0.4,0.1,0.9,0.5c2.8,2.3,25.9,30.3,19.1,56.8c-1,3.9-3,6.1-5.7,6.1l0,0c-1.9,0-4.1-1.2-6.1-3.3c-4.5-4.8-8.9-15.4-7.9-30.9
		c0.6-9.2-0.1-16.9-0.5-22.1C291.7,207.1,291.5,204.3,292,203.8z"/>
	<path d="M414,57c-7.8,0-16.5,1.5-25.7,3c-11,1.9-22.3,3.8-34.6,3.8c-0.9,0-1.8,0-2.7,0c-0.7,0-1.5,0-2.2-0.1
		c-1.9-0.1-3.6-0.1-5.3-0.1c-10.6,0-17.2,2.2-21.6,13.6c-2.7,7.2-5.9,15.4-13.3,20.7c-2.1,1.5-4.2,2.8-6.1,3.9
		c-4.3,2.6-7.7,4.7-7.9,7.5c-0.1,2.6,2.5,5.8,8.6,10.2c5.8,4.3,10.6,6.3,14.6,6.3c0.4,0,0.7,0,1.1,0c5.8-0.5,9.8-5.4,14.7-11.5
		c2.3-2.8,4.8-5.9,7.8-8.9c13-13,28.9-22.5,46.2-27.4c7.3-2,14.5-3,21.4-3c17,0,30.1,6.2,41,13.3v-0.4c-10.9-7.1-24-13.2-41-13.2
		c-6.9,0-14.1,1.1-21.4,3.1c-17.3,4.9-33.3,14.4-46.3,27.5c-3,3-5.6,6.2-7.8,8.9c-4.9,6.1-8.8,10.8-14.5,11.4c-0.3,0-0.7,0-1.1,0
		c-4,0-8.7-2.1-14.4-6.3c-6-4.4-8.6-7.4-8.5-10c0.1-2.7,3.5-4.7,7.7-7.3c1.9-1.1,4-2.4,6.1-3.9c7.5-5.3,10.7-13.6,13.4-20.8
		c4.3-11.3,10.8-13.4,21.3-13.4c1.7,0,3.5,0,5.3,0.1c0.7,0,1.4,0,2.2,0.1c0.9,0,1.8,0,2.7,0c12.4,0,23.7-1.9,34.7-3.8
		c9.2-1.6,17.8-3,25.6-3c4.5,0,8.5,0.5,12.1,1.5c7.8,2.2,15.7,5.8,23.9,10.1v-0.3c-8.2-4.2-16.1-7.8-23.8-10
		C422.6,57.5,418.6,57,414,57z"/>
	<path d="M284.4,232c-1.2,15.2,1.8,27.5,8.4,34.6c3.5,3.7,7.7,5.8,11.9,5.8l0,0c6.1,0,10.9-4.2,12.3-10.7c4.2-19-2.3-36.2-8.5-47.2
		c-7.3-12.9-16.6-22.1-21.1-25.1c-1.6-1.1-2.8-1.8-3.5-1.8c-0.3,0-0.5,0.1-0.6,0.3c-0.6,0.7-0.3,2.5,0.1,6.2
		C284.3,200.5,285.8,212.7,284.4,232z M283.5,188c0.1-0.1,0.2-0.2,0.4-0.2c0.6,0,1.8,0.7,3.3,1.7c10.1,6.8,37.1,37.6,29.5,72
		c-1.4,6.4-6.1,10.5-12.1,10.5c-4.2,0-8.3-2-11.7-5.7c-6.5-7.1-9.5-19.3-8.4-34.3c1.5-19.3-0.1-31.5-0.9-38
		C283.3,190.6,283.1,188.6,283.5,188z"/>
	<path d="M278.6,233c-1.2,18.9,2.5,33.8,10.2,42c4,4.2,8.8,6.5,14,6.5l0,0c9.9,0,18.3-8,20.9-19.9c3.8-17.6,0.5-34.9-9.7-51.4
		c-10.4-16.8-24.8-27.6-32.5-32.6c-3.9-2.5-5.6-3.6-6.2-2.8c-0.5,0.6-0.2,2.5,0.5,6.1C277.2,188.6,280.3,204.9,278.6,233z
		 M275.5,174.9c0.1-0.1,0.2-0.1,0.4-0.1c0.8,0,2.6,1.1,5.5,3c25.5,16.6,50,47.3,42.1,83.7c-2.6,11.8-10.8,19.7-20.6,19.7
		c-5.1,0-9.9-2.2-13.8-6.4c-7.7-8.1-11.2-23-10.1-41.8c1.7-28.1-1.4-44.4-2.9-52.3C275.4,177.4,275,175.4,275.5,174.9z"/>
	<path d="M163.5,170.2c2.8,0,4.9-2.7,7-6.8c3.8-7.2,11.7-10.6,16-12.5c2.2-0.9,3-1.3,2.9-1.9c-0.1-0.5-0.6-0.7-3.6-0.9
		c-8.9-0.6-28.7,7.8-31,14.2c-0.5,1.5-0.1,2.8,1.1,3.9C159.3,169,161.6,170.2,163.5,170.2L163.5,170.2z M155.4,162.6
		c2.1-5.8,20.6-13.8,29.4-13.8c0.3,0,0.6,0,0.9,0c1.7,0.1,2.5,0.2,2.8,0.3c-0.4,0.3-1.4,0.7-2.3,1.1c-4.3,1.9-12.4,5.4-16.3,12.8
		c-2.5,4.6-4.3,6.5-6.4,6.5c-1.8,0-3.9-1.2-7.2-3.9C155.3,164.8,155,163.8,155.4,162.6z"/>
	<path d="M172.2,169.9c6.8-12.4,19.3-16.7,29.3-19.1c1-0.2,1.1-0.7,1-1c-0.2-2-9.7-5.9-23.8-5.9c-1.6,0-3.2,0-4.8,0.1
		c-6.4,0.4-21.6,9.4-27.1,16c-1.4,1.7-2.1,3.2-1.9,4.3c0.4,2.8,2.8,4,5.7,5.4c3,1.5,6.4,3.2,8.1,7.2c1,2.3,2.2,3.5,3.8,3.5
		C165.2,180.3,168.4,176.8,172.2,169.9z M159.2,176.7c-1.7-4.1-5.2-5.9-8.3-7.4c-2.7-1.4-5.1-2.5-5.4-5c-0.1-0.9,0.5-2.3,1.8-3.9
		c5.4-6.6,20.4-15.4,26.7-15.8c1.6-0.1,3.2-0.1,4.8-0.1c13.8,0,23.1,3.8,23.3,5.4c0,0.3-0.4,0.4-0.6,0.5
		c-10.2,2.4-22.8,6.8-29.7,19.4C166,180.1,161.7,182.6,159.2,176.7z"/>
	<path d="M303.8,255.6L303.8,255.6c0.5,0,1-0.4,1.4-1.1c1.9-3.7,1.9-16.3-3.3-24c-0.7-1-1.6-0.9-2.4,0.4c-1.9,3.3-2.8,14,2.5,23.2
		C302.6,255.1,303.2,255.6,303.8,255.6z M300.1,231.3c0.3-0.4,0.5-0.7,0.7-0.7s0.4,0.2,0.4,0.4c4.9,7.4,5.1,19.8,3.2,23.3
		c-0.2,0.5-0.5,0.7-0.8,0.7s-0.7-0.4-1.1-1.1C297.6,244.9,298.3,234.4,300.1,231.3z"/>
	<path d="M368.8,286.3c0.7,1,2.5,1.5,5.8,1.5c2.1,0,4.6-0.2,7.5-0.4c3.6-0.2,7.7-0.5,11.9-0.5c13.4,0,22.4,2.8,28.4,9
		c5.6,4.3,8.7,11.3,11.4,17.5c3.3,7.5,6.2,14,12.5,14c0.7,0,1.4-0.1,2.1-0.2c0.5-0.1,1-0.2,1.5-0.4v-0.5c-0.6,0.2-1.1,0.3-1.6,0.4
		c-0.7,0.1-1.4,0.2-2,0.2c-6,0-8.8-6.4-12-13.7c-2.7-6.2-5.9-13.3-11.5-17.7c-6.1-6.2-15.2-9.1-28.7-9.1c-4.2,0-8.3,0.3-11.9,0.5
		c-2.9,0.2-5.4,0.4-7.5,0.4c-3.1,0-4.8-0.4-5.4-1.3c-0.3-0.5-0.3-1.1,0-1.9c6.4-17,11.7-38.5,11.2-45.2c-0.9-11.6-6-22.6-10.9-33.2
		c-6-13-11.7-25.2-8.1-35.4c5-14.2,28-38.9,40.5-40.6c0.6-0.1,1.3-0.1,2-0.1c9.7,0,26.8,6.9,46.2,18.4v-0.6
		c-19.3-11.4-36.4-18.3-46.2-18.3c-0.7,0-1.4,0-2.1,0.1c-12.6,1.7-35.8,26.6-40.9,40.9c-3.7,10.4,2.1,22.8,8.1,35.8
		c4.9,10.6,10,21.5,10.9,33c0.5,5.8-4.3,26.7-11.1,45C368.4,284.9,368.4,285.7,368.8,286.3z"/>
	<path d="M416.3,444.6c-0.6,0-1.5,0.1-2.8,0.1c-2.1,0.1-4.9,0.3-7.7,0.3c-6.9,0-10.6-1.1-10.8-3.4c-0.3-3.4,7.7-8.4,13-11.8
		c2.1-1.3,3.9-2.5,4.8-3.2c6.6-5.8,12.8-13.1,18.2-21.5c3.6-5.6,6.3-11.7,9.1-18.1c2.1-4.8,5.5-9.8,9.9-13.3v-0.4
		c-4.5,3.5-8,8.6-10.1,13.5c-2.8,6.4-5.5,12.4-9.1,18c-5.4,8.5-11.5,15.7-18.2,21.5c-0.8,0.7-2.7,1.9-4.8,3.2
		c-5.7,3.6-13.5,8.5-13.2,12c0.3,2.5,3.9,3.7,11.1,3.7c2.8,0,5.6-0.2,7.7-0.3c1.2-0.1,2.2-0.1,2.7-0.1c10.5,0,19.9,1.7,28.3,5.1h0.8
		C436.7,446.4,427.1,444.6,416.3,444.6z"/>
	<path d="M223,28.6c1.3,0,2.9-0.2,4.7-0.6s3.6-0.8,5.2-1c2.7-0.4,5.3-0.5,7.6-0.6c2.6-0.2,5-0.9,7.2-2.2
		c9.3-5.4,13.2-16.6,14.4-21.1C262.5,2,262.8,1,263,0h-0.3c-0.3,0.9-0.6,1.9-0.9,3c-1.2,4.5-5.1,15.5-14.3,20.9
		c-2.2,1.3-4.5,2-7.1,2.1c-2.3,0.1-4.9,0.3-7.6,0.6c-1.6,0.2-3.3,0.6-5.2,1c-1.8,0.4-3.4,0.6-4.7,0.6c-2.2,0-3.8-0.6-4.7-1.7
		c-1.4-1.7-1.6-4.8-0.6-9.7l0.2-0.8c1.3-6.8,3.6-12,7.2-16h-0.4c-3.5,4.1-5.8,9.3-7.1,16l-0.2,0.8c-1,5-0.8,8.2,0.7,10
		C219.1,28,220.7,28.6,223,28.6z"/>
	<path d="M414,63.9c-7.2,0-15.6,1.4-24.5,2.9c-11.2,1.9-22.9,3.9-35.8,3.9c-0.9,0-1.9,0-2.8,0l-2.2-0.1c-1.8,0-3.5-0.1-5.1-0.1
		c-14,0-14.7,7.7-15.4,15.9c-0.4,4.5-0.8,9.1-3.3,13c-0.9,1.4-3.2,3.2-5.7,5.1c-5.3,4-11.4,8.5-8.5,12.8c1.2,1.8,2.7,2.8,4.5,2.8
		c0.9,0,2-0.3,3-0.8c4.7-2.4,9.8-9.7,13.8-15.5c2.3-3.3,4.3-6.1,5.4-6.8c1.1-0.7,2.4-0.8,3.5-0.8c0.4,0,0.9,0,1.3,0s0.9,0,1.3,0
		c1.6,0,3.4-0.2,5-1.6c1.9-1.7,2.1-4,2.4-6.1c0.2-1.9,0.4-3.8,1.7-5.3c3.9-4.7,17.6-7.9,26.6-10.1c2.7-0.6,5-1.2,6.7-1.7
		c7.9-2.3,15.7-3.4,23.2-3.4c16.7,0,30.1,5.5,41,12v-0.6c-10.9-6.5-24.3-12-41-12c-7.6,0-15.4,1.2-23.4,3.4c-1.7,0.5-4,1-6.7,1.7
		c-9.7,2.3-22.9,5.4-26.9,10.2c-1.4,1.7-1.6,3.7-1.8,5.6c-0.2,2.2-0.4,4.2-2.2,5.8c-1.4,1.3-3.1,1.5-4.6,1.5c-0.4,0-0.9,0-1.3,0
		s-0.9,0-1.3,0c-1.2,0-2.5,0.1-3.8,0.8c-1.2,0.7-3.1,3.5-5.5,6.9c-3.8,5.5-9,12.9-13.7,15.3c-2.8,1.5-5,0.9-6.8-1.8
		c-2.6-3.9,3.2-8.2,8.4-12.1c2.7-2,4.9-3.7,5.9-5.2c2.5-4,2.9-8.7,3.4-13.2c0.7-8.3,1.4-15.4,14.9-15.4c1.6,0,3.3,0,5.1,0.1l2.2,0.1
		c0.9,0,1.9,0,2.8,0c13,0,24.6-2,35.9-3.9c8.9-1.5,17.2-2.9,24.4-2.9c3.8,0,7.2,0.4,10.1,1.3C432.3,68,441,72.2,450,77v-0.6
		c-9-4.7-17.5-8.9-25.7-11.2C421.3,64.4,417.9,63.9,414,63.9z"/>
	<path d="M224.9,18.1c0.8,1.5,2.4,2.2,4.9,2.2c0.7,0,1.4-0.1,2.1-0.2c2.9-0.4,5.7-0.6,8.1-0.7c0.7,0,1.4-0.2,2-0.3
		c0.7-0.2,1.4-0.5,2.1-0.9c5.4-3.2,11.8-12.5,12-18.2h-0.5c-0.2,5.5-6.6,14.8-11.8,17.8c-0.6,0.4-1.3,0.6-2,0.8
		c-0.6,0.2-1.3,0.3-2,0.3c-2.4,0.1-5.2,0.3-8.1,0.7c-3.5,0.5-5.7-0.2-6.6-1.8c-1.2-2.3,0.2-6.6,3.6-11.4c1.8-2.6,4.3-4.7,7.6-6.4h-1
		c-3,1.7-5.3,3.7-7,6.1C225,11.1,223.7,15.6,224.9,18.1z"/>
	<path d="M383.9,273.3c1.9,2.7,5.8,3,11.2,3.4c0.6,0,1.2,0.1,1.8,0.1c1.7,0.1,3.5,0.2,5.4,0.3c8.8,0.3,18.9,0.6,27.9,8.9l0.1,0.1
		c5,4.4,8,12.1,10.6,19c2.7,6.9,4.9,12.8,8.6,12.8c0.1,0,0.2,0,0.3,0v-0.3c-0.1,0-0.2,0-0.3,0c-3.4,0-5.7-5.9-8.3-12.6
		c-2.6-6.9-5.6-14.6-10.7-19.1l-0.1-0.1c-9.1-8.3-19.2-8.7-28.1-9c-1.9-0.1-3.7-0.1-5.4-0.3c-0.6-0.1-1.2-0.1-1.8-0.1
		c-5.4-0.4-9.2-0.7-11-3.3c-1.7-2.4-1.4-7,0.8-14.7c2.1-7.2,2.8-13.7,2.3-20c-1-12.9-6.4-24.4-11.6-35.6
		c-5.4-11.7-10.5-22.7-7.9-30.2c4.5-12.6,26-34.8,34.9-36c0.2,0,0.5-0.1,1.1-0.1c7.5,0,24.3,6.2,46.2,19.6v-0.4
		c-21.8-13.4-38.7-19.5-46.2-19.5c-0.5,0-0.9,0-1.1,0.1c-9,1.2-30.7,23.6-35.2,36.2c-2.7,7.7,2.4,18.7,7.9,30.5
		c5.2,11.1,10.5,22.7,11.5,35.5c0.5,6.3-0.3,12.8-2.3,19.9C382.4,266.3,382.2,270.7,383.9,273.3z"/>
	<path d="M201.6,363.7c14.9-1.7,32.6-19.4,37.4-32.9c8.3-23.5-6.4-42.4-20.6-60.7c-13.7-17.6-26.6-34.3-20.3-54.6
		c5.5-17.7,23.2-27.2,37.1-27.2c7.5,0,13.9,2.7,18.2,7.5c5.1,5.7,7.1,14.4,5.8,25.1c-4.5,36.8-5.8,77.1,35.3,89
		c4.7,1.4,9.4,2.1,13.8,2.1c17.3,0,28.3-9.9,34.5-18.2c11.9-15.9,16-39.8,10.3-59.3c-4.9-16.6-14.5-32.6-29.4-49.1
		c-22.1-24.5-52.2-45.6-92.1-64.4l-1.7-0.8c-16.8-7.9-34.1-16.1-52.3-20.6c-1.1-0.3-2.3-0.6-3.6-0.9c-5.6-1.5-12.7-3.4-18.7-3.4
		c-2.4,0-4.5,0.3-6.2,0.9c-2.6,0.9-4.1,2.7-5.5,4.4c-1.1,1.3-2.1,2.6-3.7,3.6c-1,0.6-3,1.4-5.1,2.2c-3.4,1.3-6.9,2.7-8,3.9
		c-2.1,2.5-1.5,4-1,5.5c0.4,1,0.8,2,0.3,3.5l-0.4,1.2c-3,8.9-3,8.9-10,10.9c-1.3,0.4-3,0.9-5,1.5c-5.8,1.8-8.1,4.7-10.4,7.4
		c-1.8,2.1-3.4,4.1-6.5,5.7c-0.1,0-0.2,0-0.3,0c-3.6,0-30.9,1.8-33,8.5c-0.6,1.8,0.7,3.8,3.6,5.8c3.7,2.6,6.6,2.9,8.4,2.9
		c0.9,0,1.7-0.1,2.4-0.2c0.7-0.1,1.3-0.1,1.9-0.1c2.2,0,4.4,0.6,7.5,8.1c0.7,1.8,1.3,3.4,1.8,4.6c2.4,6.2,2.4,6.3,8.4,8.8
		c1.5,0.6,3.3,1.4,5.7,2.5c7.7,3.6,9.3,7.6,11.3,12.7c1.1,2.7,2.3,5.8,4.5,9.2c2.4,3.7,5.3,6.7,8,9.5c4.9,5.1,9.5,9.9,11,17.9
		c2.5,13.9-5,27.2-13.5,39.5c-4.1,6-12.6,12.9-21.7,20.2c-15.3,12.5-32.6,26.6-32.7,39.7c0,7.5,1.9,13.2,5.7,17
		c4.2,4.2,10.5,6.2,19.3,6.2c12.8,0,28.6-4.3,42.5-8.1c11-3,20.4-5.6,26.5-5.6c1.4,0,2.5,0.1,3.4,0.4c5.8,1.7,10.5,5.4,14.9,9
		c5.9,4.7,11.5,9.2,19.6,9.2C199.9,363.9,200.8,363.8,201.6,363.7z M164.8,344.9c-1-0.3-2.2-0.4-3.6-0.4c-6.1,0-15.6,2.6-26.6,5.6
		c-13.9,3.8-29.6,8.1-42.3,8.1c-8.7,0-14.8-2-18.8-6c-3.7-3.7-5.5-9.3-5.5-16.5c0.1-12.8,17.3-26.8,32.4-39.1
		c9-7.4,17.6-14.3,21.8-20.4c8.6-12.4,16.2-25.8,13.7-40c-1.5-8.2-6.2-13.1-11.2-18.3c-2.7-2.8-5.6-5.8-8-9.4
		c-2.2-3.4-3.4-6.4-4.5-9.1c-2.1-5.3-3.7-9.4-11.7-13.1c-2.4-1.1-4.2-1.9-5.7-2.5c-5.8-2.5-5.8-2.5-8.1-8.4
		c-0.5-1.3-1.1-2.8-1.8-4.6c-2.9-7.2-5.2-8.6-8.1-8.6c-0.6,0-1.3,0.1-1.9,0.1c-0.8,0.1-1.5,0.1-2.4,0.1c-1.9,0-4.4-0.3-8-2.8
		c-2.7-1.9-3.8-3.6-3.4-5.1c1.8-5.8,27.3-8,32.3-8c0.1,0,0.2,0,0.2,0l0.1-0.3l0.2,0.3c3.3-1.7,5.1-3.8,6.9-5.9
		c2.3-2.8,4.5-5.4,10.1-7.2c2-0.6,3.7-1.1,5-1.5c7.3-2.1,7.4-2.2,10.5-11.4l0.4-1.2c0.6-1.7,0.1-2.9-0.3-4c-0.5-1.4-1-2.6,0.9-4.7
		c1-1.2,4.6-2.5,7.7-3.7c2.1-0.8,4.1-1.6,5.2-2.2c1.7-1,2.8-2.4,3.9-3.7c1.4-1.7,2.8-3.3,5.2-4.2c1.6-0.6,3.6-0.9,6-0.9
		c5.9,0,12.9,1.9,18.5,3.3c1.3,0.3,2.5,0.7,3.6,0.9c18.2,4.5,35.5,12.7,52.2,20.6l1.7,0.8c39.8,18.8,69.8,39.8,91.8,64.2
		c14.8,16.4,24.4,32.4,29.2,48.8c5.7,19.3,1.6,42.9-10.2,58.7c-6.1,8.2-17,17.9-34,17.9c-4.4,0-9-0.7-13.6-2
		c-40.5-11.7-39.2-51.7-34.8-88.2c1.3-10.9-0.7-19.8-5.9-25.7c-4.4-5-11.1-7.7-18.7-7.7c-14.1,0-32.1,9.7-37.7,27.7
		c-6.4,20.6,7.3,38.2,20.5,55.2c14.1,18.1,28.6,36.9,20.5,60c-4.7,13.3-22.1,30.8-36.8,32.4c-0.8,0.1-1.6,0.1-2.4,0.1
		c-7.8,0-13.3-4.4-19.1-9.1C175.5,350.5,170.8,346.7,164.8,344.9z"/>
	<path d="M218.8,36.4c3.4,0,7.2-0.8,10.5-1.6c1.7-0.4,3.3-0.7,4.6-0.9c2.4-0.3,4.8-0.5,7-0.6c4.7-0.3,9.2-0.5,12.7-2.5
		c2.9-1.6,4.9-4.3,6.4-8.2c2.6-7,5.7-14.8,10.2-22.6h-0.3c-4.5,7.7-7.6,15.5-10.2,22.5c-1.4,3.8-3.4,6.4-6.2,8
		c-3.5,2-7.9,2.2-12.6,2.5c-2.3,0.1-4.6,0.3-7.1,0.6c-1.3,0.2-2.9,0.5-4.6,0.9c-3.3,0.7-7,1.6-10.4,1.6c-3.3,0-5.6-0.8-7.2-2.5
		c-3.7-4-1.8-13.2-0.8-18.2l0.2-0.8c1.1-5.7,2.9-10.5,5.5-14.7h-0.4c-2.5,4.1-4.3,9-5.4,14.6l-0.2,0.8c-1,5-2.9,14.3,0.9,18.4
		C213,35.6,215.4,36.4,218.8,36.4z"/>
	<path d="M296.2,0h-0.7c-1.2,1.3-2.3,2.5-3.1,3.6c-11,15-15.9,28.8-15,42.3c0.4,5.2-0.3,8.7-2,10.6c-1.1,1.2-2.6,1.8-4.7,1.8
		c-2.9,0-6.5-1.1-10.3-2.3c-3.4-1.1-7-2.2-10.4-2.5c-2.5-0.3-5.1-0.4-7.7-0.4c-8.5,0-16.5,1.3-25,2.8c-1.4,0.2-2.9,0.5-4.3,0.7h-0.1
		c-3,0.5-6.4,1-9.7,1c-6.2,0-10.2-2.1-12.2-6.3c-4.1-8.9-3-19.6-2-29c0.1-1.3,0.3-2.5,0.4-3.8c0.7-6.9,1.9-13,3.6-18.5h-0.5
		c-1.7,5.5-2.9,11.6-3.6,18.5c-0.1,1.2-0.3,2.5-0.4,3.8c-1,9.5-2.2,20.3,2,29.3c2.1,4.5,6.2,6.6,12.7,6.6c3.3,0,6.8-0.6,9.8-1h0.1
		c1.4-0.2,2.9-0.5,4.3-0.7c8.5-1.4,16.5-2.8,25-2.8c2.7,0,5.2,0.1,7.7,0.4c3.3,0.4,6.9,1.5,10.3,2.5c3.8,1.2,7.5,2.3,10.4,2.3
		c2.2,0,3.9-0.6,5.1-2c1.8-2,2.5-5.6,2.1-11c-1-13.4,3.9-27.1,14.9-42C293.7,2.8,294.9,1.4,296.2,0z"/>
	<path d="M293,75.8c-3.4,2.4-8,3.6-14.2,3.6c-7.2,0-15.3-1.6-22.5-3c-4.2-0.8-8.2-1.6-11.4-2c-1.6-0.2-5.9-0.6-11.1-0.6
		c-9.7,0-22.2,1.3-26.4,7.6c-1.8,2.7-1.9,6.2-0.2,10.2c0.8,1.9,2.8,2.9,4.8,3.9c1.6,0.8,3.2,1.6,4.1,2.8c1.1,1.4,1.7,3.5,2.3,5.4
		c0.8,2.6,1.6,5.3,3.5,6.9c2.3,2,4.9,2.9,8.1,2.9c2.2,0,4.5-0.4,6.7-0.9c2.2-0.4,4.4-0.9,6.5-0.9s3.9,0.4,5.5,1.3
		c4,2,5.6,4.8,7.3,7.5c2.1,3.5,4.1,6.8,10.7,8.3c13.7,3.2,17.5,6.6,26.6,14.7c1.2,1,2.4,2.2,3.8,3.4c3.3,2.9,5.7,6.2,8,9.3
		c2.1,2.8,4.2,5.8,7,8.4c3.4,3.3,6.6,4.7,9.7,6.2c4.1,1.9,8.1,3.7,11.6,9.8l0.6,1c4.5,7.7,9,14.9,11.8,14.9c0.4,0,0.8-0.2,1.1-0.5
		c1-1.1,1.3-4,0.8-8.9c-0.3-2.9-2.3-5.4-4.3-7.9c-2.2-2.7-4.2-5.2-4.1-8c0.1-3.3,2.2-5,4.3-6.7c1.6-1.3,3.2-2.6,4.1-4.6
		c2.3-4.9,2.8-9.3,3.4-13.6c0.7-5.9,1.4-11.5,6.7-17.8c9.5-11.3,22.8-19.9,37.4-24.1c4.9-1.4,9.4-2.1,13.8-2.1
		c15,0,25.7,8.1,37.1,16.8c1.3,1,2.6,2,3.9,2.9v-1c-1.2-0.9-2.3-1.8-3.5-2.6c-11.5-8.7-22.3-16.9-37.5-16.9c-4.5,0-9.1,0.7-14,2.1
		c-14.8,4.2-28.2,12.9-37.8,24.3c-5.4,6.5-6.1,12.2-6.9,18.2c-0.5,4.2-1.1,8.5-3.3,13.3c-0.9,1.9-2.4,3.2-3.9,4.4
		c-2.2,1.8-4.4,3.6-4.6,7.2c-0.1,3.1,2.1,5.8,4.2,8.5c1.9,2.4,3.9,4.9,4.2,7.5c0.5,5.8-0.1,7.7-0.6,8.4c-0.2,0.2-0.4,0.3-0.6,0.3
		c-2.8,0-8.6-10.2-11.2-14.5l-0.6-1c-3.7-6.3-7.7-8.1-11.9-10c-3.1-1.4-6.2-2.8-9.5-6c-2.7-2.6-4.9-5.5-6.9-8.3
		c-2.4-3.2-4.8-6.5-8.1-9.4c-1.4-1.2-2.6-2.3-3.8-3.4c-9.2-8.2-13-11.6-26.9-14.8c-6.3-1.5-8.2-4.6-10.2-8c-1.7-2.8-3.4-5.6-7.5-7.7
		c-1.7-0.9-3.6-1.3-5.8-1.3s-4.5,0.4-6.7,0.9c-2.2,0.4-4.4,0.9-6.5,0.9c-3,0-5.4-0.9-7.7-2.7c-1.7-1.5-2.5-4-3.3-6.6
		c-0.6-2-1.3-4.1-2.4-5.6c-1-1.4-2.7-2.2-4.3-3c-1.9-1-3.8-1.9-4.5-3.6c-1.6-3.8-1.5-7,0.2-9.6c4-6,16.3-7.3,25.9-7.3
		c5.2,0,9.5,0.4,11,0.6c3.2,0.3,7.2,1.1,11.4,2c7.2,1.4,15.3,3.1,22.6,3.1c6.3,0,11.1-1.2,14.6-3.7c8.8-6.2,6.2-15.5,3.8-24.5
		c-2.6-9.6-5.3-19.6,5.5-26.1c1.3-0.8,3-1.2,5.1-1.2c6.4,0,15.5,3.5,24.3,6.9c7.6,3,14.9,5.8,19.6,5.9c0.7,0,1.4,0,2,0l0,0
		c10.1,0,20.3-1.7,30.2-3.4c9.9-1.7,20.1-3.4,30.1-3.4c7,0,13.4,0.8,19.4,2.6c5.6,1.6,11.1,3.7,16.5,6.1v-0.8
		c-5.4-2.4-10.8-4.4-16.3-6c-6.1-1.7-12.5-2.6-19.6-2.6c-10.1,0-20.3,1.7-30.2,3.4c-9.8,1.7-20,3.4-30.1,3.4c-0.7,0-1.3,0-2,0
		c-4.6-0.1-11.7-2.9-19.3-5.8c-8.8-3.4-18-7-24.6-7c-2.3,0-4.1,0.4-5.5,1.3c-11.2,6.8-8.5,17-5.8,26.9C299,61.2,301.3,69.9,293,75.8
		z"/>
	<path d="M207.9,50.3c2.1,0,4.6-0.3,8.3-0.9c9.3-1.6,18.6-2.3,29.1-2.3c2.7,0,5.4,0,8.3,0.1c1,0,1.9,0,2.7,0c4.9,0,7.7-0.6,9.8-2
		c2.5-1.7,4-4.8,5-10.2c2.3-12.4,7.2-23.5,15.6-35h-0.4c-8.4,11.5-13.3,22.6-15.6,35c-1,5.3-2.4,8.3-4.9,10c-2,1.4-4.9,2-9.7,2
		c-0.8,0-1.7,0-2.7,0c-3-0.1-5.7-0.1-8.3-0.1c-10.6,0-19.9,0.7-29.2,2.3c-3.7,0.6-6.1,0.9-8.3,0.9c-6,0-10.4-2-11.9-11.9
		c-1.4-9.4-0.2-19.4,1.2-26.1c0.9-4.3,2-8.3,3.5-12h-0.3c-1.5,3.6-2.7,7.6-3.5,11.9c-1.3,6.7-2.6,16.7-1.2,26.2
		C197.1,46.7,200.6,50.3,207.9,50.3z"/>
	<path d="M212.1,42.7L212.1,42.7c0.9,0,2-0.1,3-0.3c7.9-1.3,16.5-2.1,25.3-2.3c2.1-0.1,4,0,5.9,0c1.3,0,2.5,0.1,3.6,0.1
		c3.6,0,7.3-0.3,10.2-2.3c2.4-1.7,4.1-4.4,5.2-8.5c3-10.9,7.3-20.6,13.1-29.5H278c-5.8,8.8-10.1,18.5-13,29.4
		c-1.1,4-2.7,6.7-5.1,8.3c-2.8,2-6.5,2.2-10,2.2c-1.2,0-2.4,0-3.6-0.1c-1.9,0-3.9-0.1-5.9,0c-8.8,0.2-17.4,1-25.3,2.3
		c-4.6,0.8-8-0.2-10.1-2.7c-4.8-5.9-2.2-19-0.8-26.1c1-4.9,2.4-9.4,4.4-13.3h-0.3c-1.9,4-3.3,8.4-4.3,13.3c-1.4,7.1-4,20.4,0.9,26.4
		C206.4,41.7,208.9,42.7,212.1,42.7z"/>
</g>
</svg>
