<svg version="1.1" id="Layer_1" xmlns="http://www.w3.org/2000/svg" viewBox="0 0 857.9 626" style="enable-background:new 0 0 857.9 626;" xml:space="preserve">
<g>
	<path d="M538.7,323c-83.5,0-151.4-67.9-151.4-151.4c0-83.5,67.9-151.4,151.4-151.4c83.5,0,151.4,67.9,151.4,151.4
		C690.1,255.1,622.2,323,538.7,323z M538.7,47.6c-68.4,0-124,55.6-124,124s55.6,124,124,124c68.4,0,124-55.6,124-124
		S607.1,47.6,538.7,47.6z M264,626c12.5-143,130.9-255.4,274.7-255.4c143.8,0,262.2,112.5,274.7,255.4h27.5
		c-12.6-158.1-143.3-282.8-302.2-282.8c-158.9,0-289.6,124.7-302.2,282.8L264,626L264,626z"/>
	<path d="M282.3,324.4c39.2,0,75-15,101.9-39.6c14.4-11.4,8.1-37.6-13.9-24.5c-12.8,10.6-53.6,36.7-88,36.7
		c-68.4,0-124-55.6-124-124S214,49,282.3,49c24.7,0,47.7,7.2,67,19.7c8.9,5.8,20.6,12.7,28.2,17.7c11.9,3.1,22-15.1,11.8-22.2
		c-9-10.5-21.4-16.7-33.2-23.3c-21.8-12.3-47-19.2-73.8-19.2C198.9,21.6,131,89.5,131,173S198.9,324.4,282.3,324.4L282.3,324.4z"/>
	<path d="M348.3,379.1c19.8-1.1,25.6-23.4,12.9-25.8c-19.4-2.9-19.7-2.9-40.4-2.9c-158.9,0-289.6,124.7-302.2,282.8h27.5
		c12.5-143,130.9-255.4,274.7-255.4C330.1,377.7,339.3,378.2,348.3,379.1L348.3,379.1z"/>
</g>
</svg>
