<?xml version="1.0" encoding="utf-8"?>
<!-- Generator: Adobe Illustrator 24.3.0, SVG Export Plug-In . SVG Version: 6.00 Build 0)  -->
<svg version="1.1" id="Layer_1" xmlns="http://www.w3.org/2000/svg" xmlns:xlink="http://www.w3.org/1999/xlink" x="0px" y="0px"
	 viewBox="0 0 857.9 626" style="enable-background:new 0 0 857.9 626;" xml:space="preserve">
<g>
	<path d="M419,323c-83.5,0-151.4-67.9-151.4-151.4S335.5,20.2,419,20.2s151.4,67.9,151.4,151.4S502.5,323,419,323z M419,47.6
		c-68.4,0-124,55.6-124,124s55.6,124,124,124s124-55.6,124-124S487.4,47.6,419,47.6z M144.3,626C156.8,483,275.2,370.6,419,370.6
		S681.2,483.1,693.7,626h27.5C708.6,467.9,577.9,343.2,419,343.2S129.4,467.9,116.8,626H144.3L144.3,626z"/>
</g>
</svg>
